<svg width="1280" height="720" xmlns="http://www.w3.org/2000/svg" xmlns:xlink="http://www.w3.org/1999/xlink" overflow="hidden"><defs><clipPath id="clip0"><rect x="0" y="0" width="1280" height="720"/></clipPath></defs><g clip-path="url(#clip0)"><rect x="0" y="0" width="1280" height="720" fill="#FFFFFF"/><path d="M179.5 50.5001 179.5 748.139" stroke="#4472C4" stroke-width="1.33333" stroke-miterlimit="8" stroke-opacity="0.301961" fill="none" fill-rule="evenodd"/><path d="M288.5 50.5001 288.5 748.139" stroke="#4472C4" stroke-width="1.33333" stroke-miterlimit="8" stroke-dasharray="5.33333 4" stroke-opacity="0.301961" fill="none" fill-rule="evenodd"/><path d="M377.5 50.5001 377.5 748.139" stroke="#4472C4" stroke-width="1.33333" stroke-miterlimit="8" stroke-dasharray="5.33333 4" stroke-opacity="0.301961" fill="none" fill-rule="evenodd"/><path d="M434.5 50.5001 434.5 748.139" stroke="#4472C4" stroke-width="1.33333" stroke-miterlimit="8" stroke-dasharray="5.33333 4" stroke-opacity="0.301961" fill="none" fill-rule="evenodd"/><path d="M549.5 50.5001 549.5 748.139" stroke="#4472C4" stroke-width="1.33333" stroke-miterlimit="8" stroke-dasharray="5.33333 4" stroke-opacity="0.301961" fill="none" fill-rule="evenodd"/><path d="M770.5 50.5001 770.5 748.139" stroke="#4472C4" stroke-width="1.33333" stroke-miterlimit="8" stroke-opacity="0.301961" fill="none" fill-rule="evenodd"/><path d="M874.5 50.5001 874.5 748.139" stroke="#4472C4" stroke-width="1.33333" stroke-miterlimit="8" stroke-dasharray="5.33333 4" stroke-opacity="0.301961" fill="none" fill-rule="evenodd"/><path d="M982.5 50.5001 982.5 748.139" stroke="#4472C4" stroke-width="1.33333" stroke-miterlimit="8" stroke-dasharray="5.33333 4" stroke-opacity="0.301961" fill="none" fill-rule="evenodd"/><path d="M1146.5 50.5001 1146.5 748.139" stroke="#4472C4" stroke-width="1.33333" stroke-miterlimit="8" stroke-opacity="0.301961" fill="none" fill-rule="evenodd"/><path d="M671.5 50.5001 671.5 748.139" stroke="#4472C4" stroke-width="1.33333" stroke-miterlimit="8" stroke-dasharray="5.33333 4" stroke-opacity="0.301961" fill="none" fill-rule="evenodd"/><rect x="0.500053" y="0.500053" width="179" height="76" stroke="#2F528F" stroke-width="1.33333" stroke-miterlimit="8" fill="#CBA495" fill-opacity="0.701961"/><text font-family="SimHei,SimHei_MSFontService,sans-serif" font-weight="400" font-size="15" transform="translate(59.9467 44)">前寒武纪</text><rect x="179.5" y="0.500053" width="591" height="24" stroke="#2F528F" stroke-width="1.33333" stroke-miterlimit="8" fill="#80B5D5" fill-opacity="0.701961"/><text fill="#2E3033" font-family="SimHei,SimHei_MSFontService,sans-serif" font-weight="400" font-size="15" transform="translate(452.24 18)">古生代</text><rect x="770.5" y="0.500053" width="376" height="24" stroke="#2F528F" stroke-width="1.33333" stroke-miterlimit="8" fill="#7FAE52" fill-opacity="0.701961"/><text font-family="SimHei,SimHei_MSFontService,sans-serif" font-weight="400" font-size="15" transform="translate(936.08 18)">中生代</text><rect x="179.5" y="24.5001" width="109" height="52" stroke="#2F528F" stroke-width="1.33333" stroke-miterlimit="8" fill="#FB7F5F" fill-opacity="0.701961"/><text font-family="SimHei,SimHei_MSFontService,sans-serif" font-weight="400" font-size="15" transform="translate(211.28 56)">寒武纪</text><rect x="1146.5" y="0.500053" width="134" height="76" stroke="#2F528F" stroke-width="1.33333" stroke-miterlimit="8" fill="#FFB200" fill-opacity="0.701961"/><text font-family="SimHei,SimHei_MSFontService,sans-serif" font-weight="400" font-size="15" transform="translate(1191.12 44)">新生代</text><rect x="288.5" y="24.5001" width="89" height="52" stroke="#2F528F" stroke-width="1.33333" stroke-miterlimit="8" fill="#F881A7" fill-opacity="0.701961"/><text font-family="SimHei,SimHei_MSFontService,sans-serif" font-weight="400" font-size="15" transform="translate(310.64 56)">奥陶纪</text><rect x="377.5" y="24.5001" width="57" height="52" stroke="#2F528F" stroke-width="1.33333" stroke-miterlimit="8" fill="#B173B6" fill-opacity="0.701961"/><text font-family="SimHei,SimHei_MSFontService,sans-serif" font-weight="400" font-size="12" transform="translate(387.6 54)">志留纪</text><rect x="434.5" y="24.5001" width="115" height="52" stroke="#2F528F" stroke-width="1.33333" stroke-miterlimit="8" fill="#9899C7" fill-opacity="0.701961"/><text font-family="SimHei,SimHei_MSFontService,sans-serif" font-weight="400" font-size="15" transform="translate(469.52 56)">泥盆纪</text><rect x="549.5" y="24.5001" width="122" height="52" stroke="#2F528F" stroke-width="1.33333" stroke-miterlimit="8" fill="#99BEDB" fill-opacity="0.701961"/><text font-family="SimHei,SimHei_MSFontService,sans-serif" font-weight="400" font-size="15" transform="translate(588.08 56)">石炭纪</text><rect x="671.5" y="24.5001" width="99" height="52" stroke="#2F528F" stroke-width="1.33333" stroke-miterlimit="8" fill="#66C6DD" fill-opacity="0.701961"/><text font-family="SimHei,SimHei_MSFontService,sans-serif" font-weight="400" font-size="15" transform="translate(698.48 56)">二叠纪</text><rect x="770.5" y="24.5001" width="104" height="52" stroke="#2F528F" stroke-width="1.33333" stroke-miterlimit="8" fill="#67C3B8" fill-opacity="0.701961"/><text font-family="SimHei,SimHei_MSFontService,sans-serif" font-weight="400" font-size="15" transform="translate(799.76 56)">三叠纪</text><rect x="874.5" y="24.5001" width="109" height="52" stroke="#2F528F" stroke-width="1.33333" stroke-miterlimit="8" fill="#4DB47D" fill-opacity="0.701961"/><text font-family="SimHei,SimHei_MSFontService,sans-serif" font-weight="400" font-size="15" transform="translate(906.32 56)">侏罗纪</text><rect x="983.5" y="24.5001" width="163" height="52" stroke="#2F528F" stroke-width="1.33333" stroke-miterlimit="8" fill="#7EC31C" fill-opacity="0.701961"/><text font-family="SimHei,SimHei_MSFontService,sans-serif" font-weight="400" font-size="15" transform="translate(1042.52 56)">白垩纪</text><path d="M0 0 20.0174 0.000104987" stroke="#7F7F7F" stroke-width="1.33333" stroke-miterlimit="8" stroke-dasharray="4 1.33333" fill="none" fill-rule="evenodd" transform="matrix(-1 0 0 1 40.5175 141.5)"/><path d="M306.733 655.148 200.5 654.5" stroke="#835441" stroke-width="1.33333" stroke-miterlimit="8" stroke-dasharray="4 1.33333" fill="none" fill-rule="evenodd"/><path d="M318.986 375.062 306.5 374.5" stroke="#357774" stroke-width="1.33333" stroke-miterlimit="8" stroke-dasharray="4 1.33333" fill="none" fill-rule="evenodd"/><path d="M0 0 61.3122 0 61.3122 79.9697" stroke="#BB2C05" stroke-width="1.33333" stroke-miterlimit="8" stroke-dasharray="4 1.33333" fill="none" fill-rule="evenodd" transform="matrix(-1 1.22465e-16 1.22465e-16 1 194.812 289.5)"/><path d="M131.178 371.461 111.5 371.461 111.5 316.5" stroke="#7F7F7F" stroke-width="1.33333" stroke-miterlimit="8" stroke-dasharray="4 1.33333" fill="none" fill-rule="evenodd"/><path d="M142.817 441.687 133.5 441.687 133.5 373.5" stroke="#7F7F7F" stroke-width="1.33333" stroke-miterlimit="8" stroke-dasharray="4 1.33333" fill="none" fill-rule="evenodd"/><path d="M0 0 14.8858 0 14.8858 33.6872" stroke="#357774" stroke-width="1.33333" stroke-miterlimit="8" stroke-dasharray="4 1.33333" fill="none" fill-rule="evenodd" transform="matrix(-1 1.22465e-16 1.22465e-16 1 318.386 338.5)"/><path d="M318.386 411.51 303.5 411.51 303.5 377.5" stroke="#357774" stroke-width="1.33333" stroke-miterlimit="8" stroke-dasharray="4 1.33333" fill="none" fill-rule="evenodd"/><path d="M0 0 134.033 0 134.033 63.4864" stroke="#C2411E" stroke-width="1.33333" stroke-miterlimit="8" stroke-dasharray="4 1.33333" fill="none" fill-rule="evenodd" transform="matrix(-1 1.22465e-16 1.22465e-16 1 295.533 476.5)"/><path d="M268.5 536.808 268.5 517.5 282.858 517.5" stroke="#BF3B99" stroke-width="1.33333" stroke-miterlimit="8" stroke-dasharray="4 1.33333" fill="none" fill-rule="evenodd"/><path d="M343.658 560.77 268.5 560.77 268.5 541.5" stroke="#BF3B99" stroke-width="1.33333" stroke-miterlimit="8" stroke-dasharray="4 1.33333" fill="none" fill-rule="evenodd"/><path d="M0 0 33.435 0 33.435 48.7897" stroke="#BF3B99" stroke-width="1.33333" stroke-miterlimit="8" stroke-dasharray="4 1.33333" fill="none" fill-rule="evenodd" transform="matrix(1.83697e-16 1 1 -1.83697e-16 251.5 559.5)"/><path d="M251.5 554.751 251.5 538.5 266.185 538.5" stroke="#BF3B99" stroke-width="1.33333" stroke-miterlimit="8" stroke-dasharray="4 1.33333" fill="none" fill-rule="evenodd"/><path d="M0 0 62.2808 0 62.2808 41.9829" stroke="#7F7F7F" stroke-width="1.33333" stroke-miterlimit="8" stroke-dasharray="4 1.33333" fill="none" fill-rule="evenodd" transform="matrix(-1 1.22465e-16 1.22465e-16 1 248.781 557.5)"/><path d="M159.313 542.615 145.5 542.615 145.5 444.5" stroke="#7F7F7F" stroke-width="1.33333" stroke-miterlimit="8" stroke-dasharray="4 1.33333" fill="none" fill-rule="evenodd"/><path d="M206.451 694.07 197.5 694.07 197.5 657.5" stroke="#835441" stroke-width="1.33333" stroke-miterlimit="8" stroke-dasharray="4 1.33333" fill="none" fill-rule="evenodd"/><path d="M0 0 9.78656 0 9.78656 35.0508" stroke="#835441" stroke-width="1.33333" stroke-miterlimit="8" stroke-dasharray="4 1.33333" fill="none" fill-rule="evenodd" transform="matrix(-1 1.22465e-16 1.22465e-16 1 207.287 617.5)"/><path d="M0 0 50.3338 0 50.3338 8.8" stroke="#7F7F7F" stroke-width="1.33333" stroke-miterlimit="8" stroke-dasharray="4 1.33333" fill="none" fill-rule="evenodd" transform="matrix(1.83697e-16 1 1 -1.83697e-16 186.5 604.5)"/><path d="M0 0 195.716 0 195.716 26.8038" stroke="#FF0000" stroke-width="1.33333" stroke-miterlimit="8" stroke-dasharray="4 1.33333" fill="none" fill-rule="evenodd" transform="matrix(-1 1.22465e-16 1.22465e-16 1 238.216 112.5)"/><path d="M0 0 133.071 0 133.071 24.2714" stroke="#203864" stroke-width="1.33333" stroke-miterlimit="8" stroke-dasharray="4 1.33333" fill="none" fill-rule="evenodd" transform="matrix(-1 1.22465e-16 1.22465e-16 1 196.571 144.5)"/><path d="M0 0 27.0205 0 27.0205 17.8445" stroke="#7F7F7F" stroke-width="1.33333" stroke-miterlimit="8" stroke-dasharray="4 1.33333" fill="none" fill-rule="evenodd" transform="matrix(1.83697e-16 1 1 -1.83697e-16 42.5001 143.5)"/><path d="M0 0 29.2417 0 29.2417 14.7333" stroke="#7F7F7F" stroke-width="1.33333" stroke-miterlimit="8" stroke-dasharray="4 1.33333" fill="none" fill-rule="evenodd" transform="matrix(1.83697e-16 1 1 -1.83697e-16 63.5001 173.5)"/><path d="M0 0 121.111 0 121.111 23.8337" stroke="#203864" stroke-width="1.33333" stroke-miterlimit="8" stroke-dasharray="4 1.33333" fill="none" fill-rule="evenodd" transform="matrix(-1 1.22465e-16 1.22465e-16 1 201.611 176.5)"/><path d="M0 0 121.075 0 121.075 26.0522" stroke="#203864" stroke-width="1.33333" stroke-miterlimit="8" stroke-dasharray="4 1.33333" fill="none" fill-rule="evenodd" transform="matrix(-1 1.22465e-16 1.22465e-16 1 210.575 208.5)"/><path d="M0 0 32.4017 0 32.4017 6.52451" stroke="#7F7F7F" stroke-width="1.33333" stroke-miterlimit="8" stroke-dasharray="4 1.33333" fill="none" fill-rule="evenodd" transform="matrix(1.83697e-16 1 1 -1.83697e-16 80.5001 205.5)"/><path d="M0 0 74.3712 0 74.3712 20.4001" stroke="#7F7F7F" stroke-width="1.33333" stroke-miterlimit="8" stroke-dasharray="4 1.33333" fill="none" fill-rule="evenodd" transform="matrix(1.83697e-16 1 1 -1.83697e-16 89.5001 239.5)"/><path d="M0 0 83.6795 0 83.6795 50.9725" stroke="#835441" stroke-width="1.33333" stroke-miterlimit="8" stroke-dasharray="4 1.33333" fill="none" fill-rule="evenodd" transform="matrix(-1 1.22465e-16 1.22465e-16 1 195.18 260.5)"/><path d="M60.5001 171C60.5001 169.619 61.6193 168.5 63.0001 168.5 64.3808 168.5 65.5001 169.619 65.5001 171 65.5001 172.381 64.3808 173.5 63.0001 173.5 61.6193 173.5 60.5001 172.381 60.5001 171Z" stroke="#7F7F7F" stroke-width="1.33333" stroke-miterlimit="8" fill="#7F7F7F" fill-rule="evenodd" fill-opacity="0.901961"/><path d="M40.5001 141.5C40.5001 140.395 41.6193 139.5 43.0001 139.5 44.3808 139.5 45.5001 140.395 45.5001 141.5 45.5001 142.605 44.3808 143.5 43.0001 143.5 41.6193 143.5 40.5001 142.605 40.5001 141.5Z" stroke="#7F7F7F" stroke-width="1.33333" stroke-miterlimit="8" fill="#7F7F7F" fill-rule="evenodd" fill-opacity="0.901961"/><path d="M77.5001 203C77.5001 201.619 78.6193 200.5 80.0001 200.5 81.3808 200.5 82.5001 201.619 82.5001 203 82.5001 204.381 81.3808 205.5 80.0001 205.5 78.6193 205.5 77.5001 204.381 77.5001 203Z" stroke="#7F7F7F" stroke-width="1.33333" stroke-miterlimit="8" fill="#7F7F7F" fill-rule="evenodd" fill-opacity="0.901961"/><path d="M86.5001 237.5C86.5001 236.395 87.6193 235.5 89.0001 235.5 90.3808 235.5 91.5001 236.395 91.5001 237.5 91.5001 238.605 90.3808 239.5 89.0001 239.5 87.6193 239.5 86.5001 238.605 86.5001 237.5Z" stroke="#7F7F7F" stroke-width="1.33333" stroke-miterlimit="8" fill="#7F7F7F" fill-rule="evenodd" fill-opacity="0.901961"/><path d="M109.5 314C109.5 312.619 110.619 311.5 112 311.5 113.381 311.5 114.5 312.619 114.5 314 114.5 315.381 113.381 316.5 112 316.5 110.619 316.5 109.5 315.381 109.5 314Z" stroke="#7F7F7F" stroke-width="1.33333" stroke-miterlimit="8" fill="#7F7F7F" fill-rule="evenodd" fill-opacity="0.901961"/><path d="M131.5 371.5C131.5 370.395 132.619 369.5 134 369.5 135.381 369.5 136.5 370.395 136.5 371.5 136.5 372.605 135.381 373.5 134 373.5 132.619 373.5 131.5 372.605 131.5 371.5Z" stroke="#7F7F7F" stroke-width="1.33333" stroke-miterlimit="8" fill="#7F7F7F" fill-rule="evenodd" fill-opacity="0.901961"/><path d="M143.5 442C143.5 440.619 144.619 439.5 146 439.5 147.381 439.5 148.5 440.619 148.5 442 148.5 443.381 147.381 444.5 146 444.5 144.619 444.5 143.5 443.381 143.5 442Z" stroke="#7F7F7F" stroke-width="1.33333" stroke-miterlimit="8" fill="#7F7F7F" fill-rule="evenodd" fill-opacity="0.901961"/><path d="M301.5 375C301.5 373.619 302.619 372.5 304 372.5 305.381 372.5 306.5 373.619 306.5 375 306.5 376.381 305.381 377.5 304 377.5 302.619 377.5 301.5 376.381 301.5 375Z" stroke="#357774" stroke-width="1.33333" stroke-miterlimit="8" fill="#357774" fill-rule="evenodd" fill-opacity="0.901961"/><path d="M266.5 539C266.5 537.619 267.395 536.5 268.5 536.5 269.605 536.5 270.5 537.619 270.5 539 270.5 540.381 269.605 541.5 268.5 541.5 267.395 541.5 266.5 540.381 266.5 539Z" stroke="#BF3B99" stroke-width="1.33333" stroke-miterlimit="8" fill="#BF3B99" fill-rule="evenodd" fill-opacity="0.901961"/><path d="M248.5 557.5C248.5 556.396 249.619 555.5 251 555.5 252.381 555.5 253.5 556.396 253.5 557.5 253.5 558.605 252.381 559.5 251 559.5 249.619 559.5 248.5 558.605 248.5 557.5Z" stroke="#BF3B99" stroke-width="1.33333" stroke-miterlimit="8" fill="#BF3B99" fill-rule="evenodd" fill-opacity="0.901961"/><path d="M184.5 602C184.5 600.619 185.619 599.5 187 599.5 188.381 599.5 189.5 600.619 189.5 602 189.5 603.381 188.381 604.5 187 604.5 185.619 604.5 184.5 603.381 184.5 602Z" stroke="#7F7F7F" stroke-width="1.33333" stroke-miterlimit="8" fill="#7F7F7F" fill-rule="evenodd" fill-opacity="0.901961"/><path d="M195.5 655C195.5 653.619 196.619 652.5 198 652.5 199.381 652.5 200.5 653.619 200.5 655 200.5 656.381 199.381 657.5 198 657.5 196.619 657.5 195.5 656.381 195.5 655Z" stroke="#835441" stroke-width="1.33333" stroke-miterlimit="8" fill="#835441" fill-rule="evenodd" fill-opacity="0.901961"/><rect x="282.5" y="513.5" width="998" height="7" stroke="#7F7F7F" stroke-width="0.666667" stroke-miterlimit="8" fill="#BF3B99" fill-opacity="0.901961"/><rect x="343.5" y="557.5" width="937" height="6" stroke="#7F7F7F" stroke-width="0.666667" stroke-miterlimit="8" fill="#BF3B99" fill-opacity="0.901961"/><rect x="289.5" y="690.5" width="991" height="6" stroke="#7F7F7F" stroke-width="0.666667" stroke-miterlimit="8" fill="#835441" fill-opacity="0.901961"/><rect x="206.5" y="690.5" width="7" height="6" stroke="#7F7F7F" stroke-width="0.666667" stroke-miterlimit="8" fill="#835441" fill-opacity="0.901961"/><rect x="217.5" y="690.5" width="7" height="6" stroke="#7F7F7F" stroke-width="0.666667" stroke-miterlimit="8" fill="#835441" fill-opacity="0.901961"/><rect x="229.5" y="690.5" width="7" height="6" stroke="#7F7F7F" stroke-width="0.666667" stroke-miterlimit="8" fill="#835441" fill-opacity="0.901961"/><rect x="241.5" y="690.5" width="7" height="6" stroke="#7F7F7F" stroke-width="0.666667" stroke-miterlimit="8" fill="#835441" fill-opacity="0.901961"/><rect x="253.5" y="690.5" width="7.00002" height="6" stroke="#7F7F7F" stroke-width="0.666667" stroke-miterlimit="8" fill="#835441" fill-opacity="0.901961"/><rect x="265.5" y="690.5" width="7" height="6" stroke="#7F7F7F" stroke-width="0.666667" stroke-miterlimit="8" fill="#835441" fill-opacity="0.901961"/><rect x="277.5" y="690.5" width="7" height="6" stroke="#7F7F7F" stroke-width="0.666667" stroke-miterlimit="8" fill="#835441" fill-opacity="0.901961"/><rect x="207.5" y="613.5" width="1073" height="7" stroke="#7F7F7F" stroke-width="0.666667" stroke-miterlimit="8" fill="#835441" fill-opacity="0.901961"/><text font-family="Times New Roman,Times New Roman_MSFontService,sans-serif" font-weight="400" font-size="15" transform="translate(187.898 95)">542<tspan font-size="15" x="109.815" y="0">488</tspan><tspan font-size="15" x="199.456" y="-1">444</tspan><tspan font-size="15" x="256.44" y="1">416</tspan><tspan font-size="15" x="370.971" y="-1">359</tspan><tspan font-size="15" x="493.24" y="0">299</tspan><tspan font-size="15" x="592.12" y="0">251</tspan><tspan font-size="15" x="695.771" y="0">199.5</tspan><tspan font-size="15" x="804.09" y="0">145.5</tspan><tspan font-size="15" x="967.77" y="-1">65.5</tspan></text><rect x="238.5" y="109.5" width="17" height="6" stroke="#7F7F7F" stroke-width="0.666667" stroke-miterlimit="8" fill="#FF0000" fill-opacity="0.901961"/><rect x="256" y="97" width="272" height="27" fill="#FFFFFF"/><text fill="#0D0D0D" font-family="Times New Roman,Times New Roman_MSFontService,sans-serif" font-weight="400" font-size="15" transform="translate(265.822 116)">Ctenoimbricata<tspan font-family="DengXian,DengXian_MSFontService,sans-serif" font-size="15" x="90" y="0">（</tspan><tspan font-style="italic" font-size="15" x="104.667" y="0">Herpetogaster</tspan><tspan font-style="italic" font-size="15" x="192.833" y="0">collinsi</tspan><tspan font-family="DengXian,DengXian_MSFontService,sans-serif" font-size="15" x="235.667" y="0">）</tspan></text><rect x="196.5" y="141.5" width="51" height="6" stroke="#7F7F7F" stroke-width="0.666667" stroke-miterlimit="8" fill="#203864" fill-opacity="0.901961"/><rect x="248" y="130" width="195" height="28" fill="#FFFFFF"/><text fill="#0D0D0D" font-family="DengXian,DengXian_MSFontService,sans-serif" font-weight="400" font-size="15" transform="translate(257.828 149)">栉海林檎纲<tspan font-family="Times New Roman,Times New Roman_MSFontService,sans-serif" font-size="15" x="77" y="0">Ctenocystoidea</tspan></text><rect x="201.5" y="173.5" width="46" height="6" stroke="#7F7F7F" stroke-width="0.666667" stroke-miterlimit="8" fill="#203864" fill-opacity="0.901961"/><rect x="248" y="162" width="135" height="28" fill="#FFFFFF"/><text fill="#0D0D0D" font-family="DengXian,DengXian_MSFontService,sans-serif" font-weight="400" font-size="15" transform="translate(258.036 181)">海笔纲<tspan font-family="Times New Roman,Times New Roman_MSFontService,sans-serif" font-size="15" x="47.6667" y="0">Omostelea</tspan></text><rect x="210.5" y="205.5" width="296" height="7" stroke="#7F7F7F" stroke-width="0.666667" stroke-miterlimit="8" fill="#203864" fill-opacity="0.901961"/><rect x="511" y="195" width="149" height="27" fill="#FFFFFF"/><text fill="#0D0D0D" font-family="DengXian,DengXian_MSFontService,sans-serif" font-weight="400" font-size="15" transform="translate(520.363 214)">海箭纲<tspan font-family="Times New Roman,Times New Roman_MSFontService,sans-serif" font-size="15" x="47.6667" y="0">Homoiostelea</tspan></text><rect x="206.5" y="233.5" width="300" height="7" stroke="#7F7F7F" stroke-width="0.666667" stroke-miterlimit="8" fill="#203864" fill-opacity="0.901961"/><rect x="511" y="223" width="136" height="27" fill="#FFFFFF"/><text fill="#0D0D0D" font-family="DengXian,DengXian_MSFontService,sans-serif" font-weight="400" font-size="15" transform="translate(520.363 242)">海桩纲<tspan font-family="Times New Roman,Times New Roman_MSFontService,sans-serif" font-size="15" x="47.6667" y="0">Stylophora</tspan></text><rect x="195.5" y="257.5" width="28" height="7" stroke="#7F7F7F" stroke-width="0.666667" stroke-miterlimit="8" fill="#835441" fill-opacity="0.901961"/><rect x="225" y="247" width="184" height="27" fill="#FFFFFF"/><text fill="#0D0D0D" font-family="DengXian,DengXian_MSFontService,sans-serif" font-weight="400" font-size="15" transform="translate(234.951 265)">海旋板纲<tspan font-family="Times New Roman,Times New Roman_MSFontService,sans-serif" font-size="15" x="62.3333" y="0">Helicoplacoidea</tspan></text><rect x="195.5" y="285.5" width="574" height="7" stroke="#7F7F7F" stroke-width="0.666667" stroke-miterlimit="8" fill="#BB2C05" fill-opacity="0.901961"/><rect x="771" y="274" width="181" height="28" fill="#FFFFFF"/><text fill="#0D0D0D" font-family="DengXian,DengXian_MSFontService,sans-serif" font-weight="400" font-size="15" transform="translate(780.238 293)">海座星纲<tspan font-family="Times New Roman,Times New Roman_MSFontService,sans-serif" font-size="15" x="62.3333" y="0">Edrioasteroidea</tspan></text><rect x="195.5" y="310.5" width="217" height="7" stroke="#7F7F7F" stroke-width="0.666667" stroke-miterlimit="8" fill="#357774" fill-opacity="0.901961"/><rect x="414" y="299" width="172" height="27" fill="#FFFFFF"/><text fill="#0D0D0D" font-family="DengXian,DengXian_MSFontService,sans-serif" font-weight="400" font-size="15" transform="translate(423.979 318)">始海百合纲<tspan font-family="Times New Roman,Times New Roman_MSFontService,sans-serif" font-size="15" x="77" y="0">Eocrinoidea</tspan></text><rect x="318.5" y="335.5" width="230" height="7" stroke="#7F7F7F" stroke-width="0.666667" stroke-miterlimit="8" fill="#357774" fill-opacity="0.901961"/><rect x="550" y="324" width="139" height="28" fill="#FFFFFF"/><text fill="#0D0D0D" font-family="DengXian,DengXian_MSFontService,sans-serif" font-weight="400" font-size="15" transform="translate(559.108 343)">双孔纲<tspan font-family="Times New Roman,Times New Roman_MSFontService,sans-serif" font-size="15" x="47.6666" y="0">Diploporita</tspan></text><rect x="318.5" y="372.5" width="231" height="6" stroke="#7F7F7F" stroke-width="0.666667" stroke-miterlimit="8" fill="#357774" fill-opacity="0.901961"/><rect x="550" y="361" width="142" height="27" fill="#FFFFFF"/><text fill="#0D0D0D" font-family="DengXian,DengXian_MSFontService,sans-serif" font-weight="400" font-size="15" transform="translate(559.894 380)">孔菱纲<tspan font-family="Times New Roman,Times New Roman_MSFontService,sans-serif" font-size="15" x="47.6666" y="0">Rhombifera</tspan></text><rect x="318.5" y="407.5" width="451" height="7" stroke="#357774" stroke-width="1.33333" stroke-miterlimit="8" fill="#357774" fill-opacity="0.901961"/><rect x="774" y="397" width="133" height="27" fill="#FFFFFF"/><text fill="#0D0D0D" font-family="DengXian,DengXian_MSFontService,sans-serif" font-weight="400" font-size="15" transform="translate(783.144 416)">海蕾纲<tspan font-family="Times New Roman,Times New Roman_MSFontService,sans-serif" font-size="15" x="47.6667" y="0">Blastoidea</tspan></text><rect x="295.5" y="473.5" width="985" height="7" stroke="#7F7F7F" stroke-width="0.666667" stroke-miterlimit="8" fill="#C2411E" fill-opacity="0.901961"/><rect x="1134" y="444" width="146" height="28" fill="#FFFFFF"/><text fill="#0D0D0D" font-family="DengXian,DengXian_MSFontService,sans-serif" font-weight="400" font-size="15" transform="translate(1147.08 463)">海百合纲<tspan font-family="Times New Roman,Times New Roman_MSFontService,sans-serif" font-size="15" x="62.3333" y="0">Crinoidea</tspan></text><rect x="1148" y="485" width="132" height="27" fill="#FFFFFF"/><text fill="#0D0D0D" font-family="DengXian,DengXian_MSFontService,sans-serif" font-weight="400" font-size="15" transform="translate(1158.52 504)">海星纲<tspan font-family="Times New Roman,Times New Roman_MSFontService,sans-serif" font-size="15" x="47.6667" y="0">Asteroidea</tspan></text><rect x="1124" y="528" width="156" height="28" fill="#FFFFFF"/><text fill="#0D0D0D" font-family="DengXian,DengXian_MSFontService,sans-serif" font-weight="400" font-size="15" transform="translate(1133.9 547)">海蛇尾纲<tspan font-family="Times New Roman,Times New Roman_MSFontService,sans-serif" font-size="15" x="62.3333" y="0">Ophiuroidea</tspan></text><rect x="300.5" y="589.5" width="120" height="7" stroke="#7F7F7F" stroke-width="0.666667" stroke-miterlimit="8" fill="#BF3B99" fill-opacity="0.901961"/><rect x="421" y="579" width="169" height="28" fill="#FFFFFF"/><text fill="#0D0D0D" font-family="DengXian,DengXian_MSFontService,sans-serif" font-weight="400" font-size="15" transform="translate(430.29 598)">体海星纲<tspan font-family="Times New Roman,Times New Roman_MSFontService,sans-serif" font-size="15" x="62.3333" y="0">Somasteroidea</tspan></text><rect x="306.5" y="651.5" width="501" height="7" stroke="#7F7F7F" stroke-width="0.666667" stroke-miterlimit="8" fill="#835441" fill-opacity="0.901961"/><rect x="818" y="640" width="168" height="27" fill="#FFFFFF"/><text fill="#0D0D0D" font-family="DengXian,DengXian_MSFontService,sans-serif" font-weight="400" font-size="15" transform="translate(827.663 659)">海蛇函纲<tspan font-family="Times New Roman,Times New Roman_MSFontService,sans-serif" font-size="15" x="62.3334" y="0">Ophioastoidea</tspan></text><rect x="1146" y="662" width="134" height="28" fill="#FFFFFF"/><text fill="#0D0D0D" font-family="DengXian,DengXian_MSFontService,sans-serif" font-weight="400" font-size="15" transform="translate(1156.01 681)">海胆纲<tspan font-family="Times New Roman,Times New Roman_MSFontService,sans-serif" font-size="15" x="47.6666" y="0">Echinoidea</tspan></text><rect x="1127" y="585" width="153" height="28" fill="#FFFFFF"/><text fill="#0D0D0D" font-family="DengXian,DengXian_MSFontService,sans-serif" font-weight="400" font-size="15" transform="translate(1137.25 604)">海参纲<tspan font-family="Times New Roman,Times New Roman_MSFontService,sans-serif" font-size="15" x="47.6666" y="0">Holothuroidea</tspan></text><path d="M23 682.167C23 679.313 25.3132 677 28.1668 677L124.833 677C127.687 677 130 679.313 130 682.167L130 702.833C130 705.687 127.687 708 124.833 708L28.1668 708C25.3132 708 23 705.687 23 702.833Z" fill="#DAE3F3" fill-rule="evenodd" fill-opacity="0.901961"/><text fill="#835441" font-family="DengXian,DengXian_MSFontService,sans-serif" font-weight="400" font-size="15" transform="translate(47.0009 698)">海胆亚门</text><path d="M23 638.846C23 636.722 24.7219 635 26.846 635L124.154 635C126.278 635 128 636.722 128 638.846L128 660.154C128 662.278 126.278 664 124.154 664L26.846 664C24.7219 664 23 662.278 23 660.154Z" fill="#DAE3F3" fill-rule="evenodd" fill-opacity="0.901961"/><text fill="#BF3B99" font-family="DengXian,DengXian_MSFontService,sans-serif" font-weight="400" font-size="15" transform="translate(46.2892 655)">海星亚门</text><path d="M22 595.979C22 593.781 23.7813 592 25.9786 592L125.021 592C127.219 592 129 593.781 129 595.979L129 618.021C129 620.219 127.219 622 125.021 622L25.9786 622C23.7813 622 22 620.219 22 618.021Z" fill="#DAE3F3" fill-rule="evenodd" fill-opacity="0.901961"/><text fill="#C2411E" font-family="DengXian,DengXian_MSFontService,sans-serif" font-weight="400" font-size="15" transform="translate(38.9869 612)">海百合亚门</text><path d="M21 510.979C21 508.781 22.7813 507 24.9786 507L124.021 507C126.219 507 128 508.781 128 510.979L128 533.021C128 535.219 126.219 537 124.021 537L24.9786 537C22.7813 537 21 535.219 21 533.021Z" fill="#DAE3F3" fill-rule="evenodd" fill-opacity="0.901961"/><text fill="#203864" font-family="DengXian,DengXian_MSFontService,sans-serif" font-weight="400" font-size="15" transform="translate(35.7332 527)">海扁果亚门<tspan font-size="10" x="73.3333" y="-4">*</tspan></text><path d="M22 553.846C22 551.722 23.7219 550 25.846 550L125.154 550C127.278 550 129 551.722 129 553.846L129 575.154C129 577.278 127.278 579 125.154 579L25.846 579C23.7219 579 22 577.278 22 575.154Z" fill="#DAE3F3" fill-rule="evenodd" fill-opacity="0.901961"/><text fill="#357774" font-family="DengXian,DengXian_MSFontService,sans-serif" font-weight="400" font-size="15" transform="translate(41.968 570)">海蕾<tspan font-size="15" x="29.3333" y="0">亚门</tspan><tspan font-size="10" x="58.6667" y="-4">**</tspan></text><path d="M185.5 345C185.5 343.619 186.395 342.5 187.5 342.5 188.605 342.5 189.5 343.619 189.5 345 189.5 346.381 188.605 347.5 187.5 347.5 186.395 347.5 185.5 346.381 185.5 345Z" stroke="#357774" stroke-width="1.33333" stroke-miterlimit="8" fill="#357774" fill-rule="evenodd" fill-opacity="0.901961"/><path d="M0 0 8.25197 0 8.25197 28.2776" stroke="#357774" stroke-width="1.33333" stroke-miterlimit="8" stroke-dasharray="4 1.33333" fill="none" fill-rule="evenodd" transform="matrix(-1 1.22465e-16 1.22465e-16 1 195.752 314.5)"/><path d="M0 0 27.7213 0 27.7213 113.881" stroke="#357774" stroke-width="1.33333" stroke-miterlimit="8" stroke-dasharray="4 1.33333" fill="none" fill-rule="evenodd" transform="matrix(1.83697e-16 1 1 -1.83697e-16 187.5 347.5)"/><path d="M0 0 39.4052 0 39.4052 95.0671" stroke="#7F7F7F" stroke-width="1.33333" stroke-miterlimit="8" stroke-dasharray="4 1.33333" fill="none" fill-rule="evenodd" transform="matrix(-1 1.22465e-16 1.22465e-16 1 184.905 344.5)"/><text font-family="DengXian,DengXian_MSFontService,sans-serif" font-weight="400" font-size="12" transform="translate(1202.1 92)">单位：百万年</text><path d="M0 0 114.551 0.39622" stroke="#203864" stroke-width="1.33333" stroke-miterlimit="8" stroke-dasharray="4 1.33333" fill="none" fill-rule="evenodd" transform="matrix(-1 0 0 1 206.051 237.5)"/><path d="M159.5 543C159.5 541.619 160.619 540.5 162 540.5 163.381 540.5 164.5 541.619 164.5 543 164.5 544.381 163.381 545.5 162 545.5 160.619 545.5 159.5 544.381 159.5 543Z" stroke="#7F7F7F" stroke-width="1.33333" stroke-miterlimit="8" fill="#7F7F7F" fill-rule="evenodd" fill-opacity="0.901961"/><path d="M183.892 602.308 161.5 602.308 161.5 545.5" stroke="#7F7F7F" stroke-width="1.33333" stroke-miterlimit="8" stroke-dasharray="4 1.33333" fill="none" fill-rule="evenodd"/><text font-family="Times New Roman,Times New Roman_MSFontService,sans-serif" font-weight="400" font-size="15" transform="translate(9.83675 96)">630</text><path d="M0 0 158.037 0.135853" stroke="#C2411E" stroke-width="1.33333" stroke-miterlimit="8" stroke-dasharray="4 1.33333" fill="none" fill-rule="evenodd" transform="matrix(-1 0 0 1 306.537 442.5)"/><rect x="306.5" y="438.5" width="77" height="7" stroke="#7F7F7F" stroke-width="0.666667" stroke-miterlimit="8" fill="#C2411E"/><rect x="385" y="427" width="181" height="28" fill="#FFFFFF"/><text fill="#0D0D0D" font-family="DengXian,DengXian_MSFontService,sans-serif" font-weight="400" font-size="15" transform="translate(394.456 446)">拟海百合纲<tspan font-family="Times New Roman,Times New Roman_MSFontService,sans-serif" font-size="15" x="77" y="0">Paracrinoidea</tspan></text><path d="M793 142.167C793 131.581 801.581 123 812.167 123L1251.83 123C1262.42 123 1271 131.581 1271 142.167L1271 218.833C1271 229.419 1262.42 238 1251.83 238L812.167 238C801.581 238 793 229.419 793 218.833Z" fill="#4472C4" fill-rule="evenodd" fill-opacity="0.501961"/><text fill="#FFFFFF" font-family="DengXian,DengXian_MSFontService,sans-serif" font-weight="400" font-size="24" transform="translate(827.886 159)">此图由个人参考资料绘制，不一定准确<tspan font-size="24" x="0" y="29">仅供学习交流使用，未经允许不得转载</tspan><tspan font-size="24" x="36.3333" y="58">联系方式：</tspan>lanqilu@foxmail.com</text></g></svg>