<svg width="960" height="720" xmlns="http://www.w3.org/2000/svg" xmlns:xlink="http://www.w3.org/1999/xlink" overflow="hidden"><defs><clipPath id="clip0"><rect x="0" y="0" width="960" height="720"/></clipPath></defs><g clip-path="url(#clip0)"><rect x="0" y="0" width="960" height="720" fill="#FFFFFF"/><path d="M600 172 904 172" stroke="#008000" stroke-width="4" stroke-linejoin="round" stroke-miterlimit="10" fill="none" fill-rule="evenodd"/><path d="M600 196 904 196" stroke="#008000" stroke-width="4" stroke-linejoin="round" stroke-miterlimit="10" fill="none" fill-rule="evenodd"/><path d="M616.5 172.5 616.5 196.5" stroke="#000000" stroke-linejoin="round" stroke-miterlimit="10" fill="none" fill-rule="evenodd"/><path d="M632.5 172.5 632.5 196.5" stroke="#000000" stroke-linejoin="round" stroke-miterlimit="10" fill="none" fill-rule="evenodd"/><path d="M648.5 172.5 648.5 196.5" stroke="#000000" stroke-linejoin="round" stroke-miterlimit="10" fill="none" fill-rule="evenodd"/><path d="M664.5 172.5 664.5 196.5" stroke="#000000" stroke-linejoin="round" stroke-miterlimit="10" fill="none" fill-rule="evenodd"/><path d="M680.5 172.5 680.5 196.5" stroke="#000000" stroke-linejoin="round" stroke-miterlimit="10" fill="none" fill-rule="evenodd"/><path d="M696.5 172.5 696.5 196.5" stroke="#000000" stroke-linejoin="round" stroke-miterlimit="10" fill="none" fill-rule="evenodd"/><path d="M712.5 172.5 712.5 196.5" stroke="#000000" stroke-linejoin="round" stroke-miterlimit="10" fill="none" fill-rule="evenodd"/><path d="M728.5 172.5 728.5 196.5" stroke="#000000" stroke-linejoin="round" stroke-miterlimit="10" fill="none" fill-rule="evenodd"/><path d="M744.5 172.5 744.5 196.5" stroke="#000000" stroke-linejoin="round" stroke-miterlimit="10" fill="none" fill-rule="evenodd"/><path d="M760.5 172.5 760.5 196.5" stroke="#000000" stroke-linejoin="round" stroke-miterlimit="10" fill="none" fill-rule="evenodd"/><path d="M776.5 172.5 776.5 196.5" stroke="#000000" stroke-linejoin="round" stroke-miterlimit="10" fill="none" fill-rule="evenodd"/><path d="M792.5 172.5 792.5 196.5" stroke="#000000" stroke-linejoin="round" stroke-miterlimit="10" fill="none" fill-rule="evenodd"/><path d="M808.5 172.5 808.5 196.5" stroke="#000000" stroke-linejoin="round" stroke-miterlimit="10" fill="none" fill-rule="evenodd"/><path d="M824.5 172.5 824.5 196.5" stroke="#000000" stroke-linejoin="round" stroke-miterlimit="10" fill="none" fill-rule="evenodd"/><path d="M840.5 172.5 840.5 196.5" stroke="#000000" stroke-linejoin="round" stroke-miterlimit="10" fill="none" fill-rule="evenodd"/><path d="M856.5 172.5 856.5 196.5" stroke="#000000" stroke-linejoin="round" stroke-miterlimit="10" fill="none" fill-rule="evenodd"/><path d="M872.5 172.5 872.5 196.5" stroke="#000000" stroke-linejoin="round" stroke-miterlimit="10" fill="none" fill-rule="evenodd"/><path d="M888.5 172.5 888.5 196.5" stroke="#000000" stroke-linejoin="round" stroke-miterlimit="10" fill="none" fill-rule="evenodd"/><text font-family="SimSun,SimSun_MSFontService,sans-serif" font-weight="700" font-size="21" transform="translate(577.579 182)">5<tspan font-family="Times New Roman,Times New Roman_MSFontService,sans-serif" font-size="21" x="10.8333" y="0">’</tspan><tspan font-size="21" x="0" y="25">3</tspan><tspan font-family="Times New Roman,Times New Roman_MSFontService,sans-serif" font-size="21" x="10.8333" y="25">’</tspan><tspan font-size="21" x="328" y="0">3</tspan><tspan font-family="Times New Roman,Times New Roman_MSFontService,sans-serif" font-size="21" x="338.833" y="0">’</tspan><tspan font-size="21" x="328" y="25">5</tspan><tspan font-family="Times New Roman,Times New Roman_MSFontService,sans-serif" font-size="21" x="338.833" y="25">’</tspan></text><path d="M54 172 118 172" stroke="#008000" stroke-width="4" stroke-linejoin="round" stroke-miterlimit="10" fill="none" fill-rule="evenodd"/><path d="M54 196 198 196" stroke="#008000" stroke-width="4" stroke-linejoin="round" stroke-miterlimit="10" fill="none" fill-rule="evenodd"/><path d="M62.5001 172.5 62.5002 196.5" stroke="#000000" stroke-linejoin="round" stroke-miterlimit="10" fill="none" fill-rule="evenodd"/><path d="M78.5001 172.5 78.5002 196.5" stroke="#000000" stroke-linejoin="round" stroke-miterlimit="10" fill="none" fill-rule="evenodd"/><path d="M94.5001 172.5 94.5002 196.5" stroke="#000000" stroke-linejoin="round" stroke-miterlimit="10" fill="none" fill-rule="evenodd"/><path d="M110.5 172.5 110.5 196.5" stroke="#000000" stroke-linejoin="round" stroke-miterlimit="10" fill="none" fill-rule="evenodd"/><path d="M126.5 180.5 126.5 196.5" stroke="#000000" stroke-linejoin="round" stroke-miterlimit="10" fill="none" fill-rule="evenodd"/><path d="M142.5 180.5 142.5 196.5" stroke="#000000" stroke-linejoin="round" stroke-miterlimit="10" fill="none" fill-rule="evenodd"/><path d="M158.5 180.5 158.5 196.5" stroke="#000000" stroke-linejoin="round" stroke-miterlimit="10" fill="none" fill-rule="evenodd"/><path d="M174.5 180.5 174.5 196.5" stroke="#000000" stroke-linejoin="round" stroke-miterlimit="10" fill="none" fill-rule="evenodd"/><path d="M190.5 180.5 190.5 196.5" stroke="#000000" stroke-linejoin="round" stroke-miterlimit="10" fill="none" fill-rule="evenodd"/><path d="M342 196 278 196" stroke="#008000" stroke-width="4" stroke-linejoin="round" stroke-miterlimit="10" fill="none" fill-rule="evenodd"/><path d="M342 172 198 172" stroke="#008000" stroke-width="4" stroke-linejoin="round" stroke-miterlimit="10" fill="none" fill-rule="evenodd"/><path d="M334.5 196.5 334.5 172.5" stroke="#000000" stroke-linejoin="round" stroke-miterlimit="10" fill="none" fill-rule="evenodd"/><path d="M318.5 196.5 318.5 172.5" stroke="#000000" stroke-linejoin="round" stroke-miterlimit="10" fill="none" fill-rule="evenodd"/><path d="M302.5 196.5 302.5 172.5" stroke="#000000" stroke-linejoin="round" stroke-miterlimit="10" fill="none" fill-rule="evenodd"/><path d="M286.5 196.5 286.5 172.5" stroke="#000000" stroke-linejoin="round" stroke-miterlimit="10" fill="none" fill-rule="evenodd"/><path d="M270.5 188.5 270.5 172.5" stroke="#000000" stroke-linejoin="round" stroke-miterlimit="10" fill="none" fill-rule="evenodd"/><path d="M254.5 188.5 254.5 172.5" stroke="#000000" stroke-linejoin="round" stroke-miterlimit="10" fill="none" fill-rule="evenodd"/><path d="M238.5 188.5 238.5 172.5" stroke="#000000" stroke-linejoin="round" stroke-miterlimit="10" fill="none" fill-rule="evenodd"/><path d="M222.5 188.5 222.5 172.5" stroke="#000000" stroke-linejoin="round" stroke-miterlimit="10" fill="none" fill-rule="evenodd"/><path d="M206.5 188.5 206.5 172.5" stroke="#000000" stroke-linejoin="round" stroke-miterlimit="10" fill="none" fill-rule="evenodd"/><text font-family="SimSun,SimSun_MSFontService,sans-serif" font-weight="700" font-size="21" transform="translate(39.6625 177)">5<tspan font-family="Times New Roman,Times New Roman_MSFontService,sans-serif" font-size="21" x="10.8333" y="0">’</tspan><tspan font-size="21" x="0" y="25">3</tspan><tspan font-family="Times New Roman,Times New Roman_MSFontService,sans-serif" font-size="21" x="10.8333" y="25">’</tspan><tspan font-size="21" x="304" y="6">3</tspan><tspan font-size="21" x="314.833" y="6">'</tspan><tspan font-size="21" x="304" y="30">5</tspan><tspan font-family="Times New Roman,Times New Roman_MSFontService,sans-serif" font-size="21" x="314.833" y="30">’</tspan><tspan font-size="24" x="143.333" y="-1">P</tspan><tspan font-size="24" x="159.333" y="31">P</tspan><tspan font-size="24" x="210.5" y="34">OH</tspan><tspan font-size="24" x="80" y="-1">OH</tspan></text><path d="M46 300 342 300" stroke="#008000" stroke-width="4" stroke-linejoin="round" stroke-miterlimit="10" fill="none" fill-rule="evenodd"/><path d="M46 324 190 324" stroke="#008000" stroke-width="4" stroke-linejoin="round" stroke-miterlimit="10" fill="none" fill-rule="evenodd"/><path d="M198 324 342 324" stroke="#008000" stroke-width="4" stroke-linejoin="round" stroke-miterlimit="10" fill="none" fill-rule="evenodd"/><path d="M54.5001 300.5 54.5002 324.5" stroke="#000000" stroke-linejoin="round" stroke-miterlimit="10" fill="none" fill-rule="evenodd"/><path d="M70.5001 300.5 70.5002 324.5" stroke="#000000" stroke-linejoin="round" stroke-miterlimit="10" fill="none" fill-rule="evenodd"/><path d="M86.5001 300.5 86.5002 324.5" stroke="#000000" stroke-linejoin="round" stroke-miterlimit="10" fill="none" fill-rule="evenodd"/><path d="M102.5 300.5 102.5 324.5" stroke="#000000" stroke-linejoin="round" stroke-miterlimit="10" fill="none" fill-rule="evenodd"/><path d="M118.5 300.5 118.5 324.5" stroke="#000000" stroke-linejoin="round" stroke-miterlimit="10" fill="none" fill-rule="evenodd"/><path d="M134.5 300.5 134.5 324.5" stroke="#000000" stroke-linejoin="round" stroke-miterlimit="10" fill="none" fill-rule="evenodd"/><path d="M150.5 300.5 150.5 324.5" stroke="#000000" stroke-linejoin="round" stroke-miterlimit="10" fill="none" fill-rule="evenodd"/><path d="M238.5 300.5 238.5 324.5" stroke="#000000" stroke-linejoin="round" stroke-miterlimit="10" fill="none" fill-rule="evenodd"/><path d="M254.5 300.5 254.5 324.5" stroke="#000000" stroke-linejoin="round" stroke-miterlimit="10" fill="none" fill-rule="evenodd"/><path d="M270.5 300.5 270.5 324.5" stroke="#000000" stroke-linejoin="round" stroke-miterlimit="10" fill="none" fill-rule="evenodd"/><path d="M286.5 300.5 286.5 324.5" stroke="#000000" stroke-linejoin="round" stroke-miterlimit="10" fill="none" fill-rule="evenodd"/><path d="M302.5 300.5 302.5 324.5" stroke="#000000" stroke-linejoin="round" stroke-miterlimit="10" fill="none" fill-rule="evenodd"/><path d="M318.5 300.5 318.5 324.5" stroke="#000000" stroke-linejoin="round" stroke-miterlimit="10" fill="none" fill-rule="evenodd"/><path d="M334.5 300.5 334.5 324.5" stroke="#000000" stroke-linejoin="round" stroke-miterlimit="10" fill="none" fill-rule="evenodd"/><path d="M222.5 300.5 222.5 324.5" stroke="#000000" stroke-linejoin="round" stroke-miterlimit="10" fill="none" fill-rule="evenodd"/><path d="M206.5 300.5 206.5 324.5" stroke="#000000" stroke-linejoin="round" stroke-miterlimit="10" fill="none" fill-rule="evenodd"/><path d="M166.5 300.5 166.5 324.5" stroke="#000000" stroke-linejoin="round" stroke-miterlimit="10" fill="none" fill-rule="evenodd"/><path d="M182.5 300.5 182.5 324.5" stroke="#000000" stroke-linejoin="round" stroke-miterlimit="10" fill="none" fill-rule="evenodd"/><text font-family="SimSun,SimSun_MSFontService,sans-serif" font-weight="700" font-size="21" transform="translate(31.6625 305)">5<tspan font-family="Times New Roman,Times New Roman_MSFontService,sans-serif" font-size="21" x="10.8333" y="0">’</tspan><tspan font-size="21" x="0" y="25">3</tspan><tspan font-family="Times New Roman,Times New Roman_MSFontService,sans-serif" font-size="21" x="10.8333" y="25">’</tspan><tspan font-size="21" x="312" y="5">3</tspan><tspan font-family="Times New Roman,Times New Roman_MSFontService,sans-serif" font-size="21" x="322.833" y="5">’</tspan><tspan font-size="21" x="312" y="30">5</tspan><tspan font-family="Times New Roman,Times New Roman_MSFontService,sans-serif" font-size="21" x="322.833" y="30">’</tspan></text><path d="M0 0 16 16" stroke="#000000" stroke-linejoin="round" stroke-miterlimit="10" fill="none" fill-rule="evenodd" transform="matrix(-1 0 0 1 190.5 324.5)"/><path d="M198.5 324.5 214.5 340.5" stroke="#000000" stroke-linejoin="round" stroke-miterlimit="10" fill="none" fill-rule="evenodd"/><text font-family="SimSun,SimSun_MSFontService,sans-serif" font-weight="700" font-size="24" transform="translate(164.912 359)">P<tspan font-size="24" x="44.361" y="1">OH</tspan><tspan font-size="21" x="212.586" y="-54">RNA</tspan><tspan font-size="21" x="213.198" y="-25">DNA</tspan></text><path d="M46 423 166 423" stroke="#008000" stroke-width="4" stroke-linejoin="round" stroke-miterlimit="10" fill="none" fill-rule="evenodd"/><path d="M46 447 166 447" stroke="#008000" stroke-width="4" stroke-linejoin="round" stroke-miterlimit="10" fill="none" fill-rule="evenodd"/><path d="M54.5001 423.5 54.5002 447.5" stroke="#000000" stroke-linejoin="round" stroke-miterlimit="10" fill="none" fill-rule="evenodd"/><path d="M70.5001 423.5 70.5002 447.5" stroke="#000000" stroke-linejoin="round" stroke-miterlimit="10" fill="none" fill-rule="evenodd"/><path d="M86.5001 423.5 86.5002 447.5" stroke="#000000" stroke-linejoin="round" stroke-miterlimit="10" fill="none" fill-rule="evenodd"/><path d="M102.5 423.5 102.5 447.5" stroke="#000000" stroke-linejoin="round" stroke-miterlimit="10" fill="none" fill-rule="evenodd"/><path d="M118.5 423.5 118.5 447.5" stroke="#000000" stroke-linejoin="round" stroke-miterlimit="10" fill="none" fill-rule="evenodd"/><path d="M134.5 423.5 134.5 447.5" stroke="#000000" stroke-linejoin="round" stroke-miterlimit="10" fill="none" fill-rule="evenodd"/><path d="M150.5 423.5 150.5 447.5" stroke="#000000" stroke-linejoin="round" stroke-miterlimit="10" fill="none" fill-rule="evenodd"/><path d="M222 423 342 423" stroke="#008000" stroke-width="4" stroke-linejoin="round" stroke-miterlimit="10" fill="none" fill-rule="evenodd"/><path d="M222 447 342 447" stroke="#008000" stroke-width="4" stroke-linejoin="round" stroke-miterlimit="10" fill="none" fill-rule="evenodd"/><path d="M230.5 423.5 230.5 447.5" stroke="#000000" stroke-linejoin="round" stroke-miterlimit="10" fill="none" fill-rule="evenodd"/><path d="M246.5 423.5 246.5 447.5" stroke="#000000" stroke-linejoin="round" stroke-miterlimit="10" fill="none" fill-rule="evenodd"/><path d="M262.5 423.5 262.5 447.5" stroke="#000000" stroke-linejoin="round" stroke-miterlimit="10" fill="none" fill-rule="evenodd"/><path d="M278.5 423.5 278.5 447.5" stroke="#000000" stroke-linejoin="round" stroke-miterlimit="10" fill="none" fill-rule="evenodd"/><path d="M294.5 423.5 294.5 447.5" stroke="#000000" stroke-linejoin="round" stroke-miterlimit="10" fill="none" fill-rule="evenodd"/><path d="M310.5 423.5 310.5 447.5" stroke="#000000" stroke-linejoin="round" stroke-miterlimit="10" fill="none" fill-rule="evenodd"/><path d="M326.5 423.5 326.5 447.5" stroke="#000000" stroke-linejoin="round" stroke-miterlimit="10" fill="none" fill-rule="evenodd"/><text font-family="SimSun,SimSun_MSFontService,sans-serif" font-weight="700" font-size="21" transform="translate(31.6625 428)">5<tspan font-family="Times New Roman,Times New Roman_MSFontService,sans-serif" font-size="21" x="10.8333" y="0">’</tspan><tspan font-size="21" x="0" y="25">3</tspan><tspan font-family="Times New Roman,Times New Roman_MSFontService,sans-serif" font-size="21" x="10.8333" y="25">’</tspan><tspan font-size="21" x="312" y="0">3</tspan><tspan font-family="Times New Roman,Times New Roman_MSFontService,sans-serif" font-size="21" x="322.833" y="0">’</tspan><tspan font-size="21" x="312" y="25">5</tspan><tspan font-family="Times New Roman,Times New Roman_MSFontService,sans-serif" font-size="21" x="322.833" y="25">’</tspan><tspan font-size="24" x="136.617" y="0">OH</tspan><tspan font-size="24" x="161.792" y="28">OH</tspan><tspan font-size="24" x="175.333" y="0">P</tspan><tspan font-size="24" x="136.375" y="30">P</tspan></text><path d="M600 300 904 300" stroke="#008000" stroke-width="4" stroke-linejoin="round" stroke-miterlimit="10" fill="none" fill-rule="evenodd"/><path d="M600 324 904 324" stroke="#008000" stroke-width="4" stroke-linejoin="round" stroke-miterlimit="10" fill="none" fill-rule="evenodd"/><path d="M616.5 300.5 616.5 324.5" stroke="#000000" stroke-linejoin="round" stroke-miterlimit="10" fill="none" fill-rule="evenodd"/><path d="M632.5 300.5 632.5 324.5" stroke="#000000" stroke-linejoin="round" stroke-miterlimit="10" fill="none" fill-rule="evenodd"/><path d="M648.5 300.5 648.5 324.5" stroke="#000000" stroke-linejoin="round" stroke-miterlimit="10" fill="none" fill-rule="evenodd"/><path d="M664.5 300.5 664.5 324.5" stroke="#000000" stroke-linejoin="round" stroke-miterlimit="10" fill="none" fill-rule="evenodd"/><path d="M680.5 300.5 680.5 324.5" stroke="#000000" stroke-linejoin="round" stroke-miterlimit="10" fill="none" fill-rule="evenodd"/><path d="M696.5 300.5 696.5 324.5" stroke="#000000" stroke-linejoin="round" stroke-miterlimit="10" fill="none" fill-rule="evenodd"/><path d="M712.5 300.5 712.5 324.5" stroke="#000000" stroke-linejoin="round" stroke-miterlimit="10" fill="none" fill-rule="evenodd"/><path d="M728.5 300.5 728.5 324.5" stroke="#000000" stroke-linejoin="round" stroke-miterlimit="10" fill="none" fill-rule="evenodd"/><path d="M744.5 300.5 744.5 324.5" stroke="#000000" stroke-linejoin="round" stroke-miterlimit="10" fill="none" fill-rule="evenodd"/><path d="M760.5 300.5 760.5 324.5" stroke="#000000" stroke-linejoin="round" stroke-miterlimit="10" fill="none" fill-rule="evenodd"/><path d="M776.5 300.5 776.5 324.5" stroke="#000000" stroke-linejoin="round" stroke-miterlimit="10" fill="none" fill-rule="evenodd"/><path d="M792.5 300.5 792.5 324.5" stroke="#000000" stroke-linejoin="round" stroke-miterlimit="10" fill="none" fill-rule="evenodd"/><path d="M808.5 300.5 808.5 324.5" stroke="#000000" stroke-linejoin="round" stroke-miterlimit="10" fill="none" fill-rule="evenodd"/><path d="M824.5 300.5 824.5 324.5" stroke="#000000" stroke-linejoin="round" stroke-miterlimit="10" fill="none" fill-rule="evenodd"/><path d="M840.5 300.5 840.5 324.5" stroke="#000000" stroke-linejoin="round" stroke-miterlimit="10" fill="none" fill-rule="evenodd"/><path d="M856.5 300.5 856.5 324.5" stroke="#000000" stroke-linejoin="round" stroke-miterlimit="10" fill="none" fill-rule="evenodd"/><path d="M872.5 300.5 872.5 324.5" stroke="#000000" stroke-linejoin="round" stroke-miterlimit="10" fill="none" fill-rule="evenodd"/><path d="M888.5 300.5 888.5 324.5" stroke="#000000" stroke-linejoin="round" stroke-miterlimit="10" fill="none" fill-rule="evenodd"/><text font-family="SimSun,SimSun_MSFontService,sans-serif" font-weight="700" font-size="21" transform="translate(577.579 310)">5<tspan font-family="Times New Roman,Times New Roman_MSFontService,sans-serif" font-size="21" x="10.8333" y="0">’</tspan><tspan font-size="21" x="0" y="25">3</tspan><tspan font-family="Times New Roman,Times New Roman_MSFontService,sans-serif" font-size="21" x="10.8333" y="25">’</tspan><tspan font-size="21" x="328" y="0">3</tspan><tspan font-family="Times New Roman,Times New Roman_MSFontService,sans-serif" font-size="21" x="338.833" y="0">’</tspan><tspan font-size="21" x="328" y="25">5</tspan><tspan font-family="Times New Roman,Times New Roman_MSFontService,sans-serif" font-size="21" x="338.833" y="25">’</tspan></text><path d="M592 423 896 423" stroke="#008000" stroke-width="4" stroke-linejoin="round" stroke-miterlimit="10" fill="none" fill-rule="evenodd"/><path d="M592 447 896 447" stroke="#008000" stroke-width="4" stroke-linejoin="round" stroke-miterlimit="10" fill="none" fill-rule="evenodd"/><path d="M608.5 423.5 608.5 447.5" stroke="#000000" stroke-linejoin="round" stroke-miterlimit="10" fill="none" fill-rule="evenodd"/><path d="M624.5 423.5 624.5 447.5" stroke="#000000" stroke-linejoin="round" stroke-miterlimit="10" fill="none" fill-rule="evenodd"/><path d="M640.5 423.5 640.5 447.5" stroke="#000000" stroke-linejoin="round" stroke-miterlimit="10" fill="none" fill-rule="evenodd"/><path d="M656.5 423.5 656.5 447.5" stroke="#000000" stroke-linejoin="round" stroke-miterlimit="10" fill="none" fill-rule="evenodd"/><path d="M672.5 423.5 672.5 447.5" stroke="#000000" stroke-linejoin="round" stroke-miterlimit="10" fill="none" fill-rule="evenodd"/><path d="M688.5 423.5 688.5 447.5" stroke="#000000" stroke-linejoin="round" stroke-miterlimit="10" fill="none" fill-rule="evenodd"/><path d="M704.5 423.5 704.5 447.5" stroke="#000000" stroke-linejoin="round" stroke-miterlimit="10" fill="none" fill-rule="evenodd"/><path d="M720.5 423.5 720.5 447.5" stroke="#000000" stroke-linejoin="round" stroke-miterlimit="10" fill="none" fill-rule="evenodd"/><path d="M736.5 423.5 736.5 447.5" stroke="#000000" stroke-linejoin="round" stroke-miterlimit="10" fill="none" fill-rule="evenodd"/><path d="M752.5 423.5 752.5 447.5" stroke="#000000" stroke-linejoin="round" stroke-miterlimit="10" fill="none" fill-rule="evenodd"/><path d="M768.5 423.5 768.5 447.5" stroke="#000000" stroke-linejoin="round" stroke-miterlimit="10" fill="none" fill-rule="evenodd"/><path d="M784.5 423.5 784.5 447.5" stroke="#000000" stroke-linejoin="round" stroke-miterlimit="10" fill="none" fill-rule="evenodd"/><path d="M800.5 423.5 800.5 447.5" stroke="#000000" stroke-linejoin="round" stroke-miterlimit="10" fill="none" fill-rule="evenodd"/><path d="M816.5 423.5 816.5 447.5" stroke="#000000" stroke-linejoin="round" stroke-miterlimit="10" fill="none" fill-rule="evenodd"/><path d="M832.5 423.5 832.5 447.5" stroke="#000000" stroke-linejoin="round" stroke-miterlimit="10" fill="none" fill-rule="evenodd"/><path d="M848.5 423.5 848.5 447.5" stroke="#000000" stroke-linejoin="round" stroke-miterlimit="10" fill="none" fill-rule="evenodd"/><path d="M864.5 423.5 864.5 447.5" stroke="#000000" stroke-linejoin="round" stroke-miterlimit="10" fill="none" fill-rule="evenodd"/><path d="M880.5 423.5 880.5 447.5" stroke="#000000" stroke-linejoin="round" stroke-miterlimit="10" fill="none" fill-rule="evenodd"/><text font-family="SimSun,SimSun_MSFontService,sans-serif" font-weight="700" font-size="21" transform="translate(569.579 433)">5<tspan font-family="Times New Roman,Times New Roman_MSFontService,sans-serif" font-size="21" x="10.8333" y="0">’</tspan><tspan font-size="21" x="0" y="25">3</tspan><tspan font-family="Times New Roman,Times New Roman_MSFontService,sans-serif" font-size="21" x="10.8333" y="25">’</tspan><tspan font-size="21" x="328" y="0">3</tspan><tspan font-family="Times New Roman,Times New Roman_MSFontService,sans-serif" font-size="21" x="338.833" y="0">’</tspan><tspan font-size="21" x="328" y="25">5</tspan><tspan font-family="Times New Roman,Times New Roman_MSFontService,sans-serif" font-size="21" x="338.833" y="25">’</tspan></text><path d="M396.5 178.75 516.568 178.75 516.568 172.5 546.5 185 516.568 197.5 516.568 191.25 396.5 191.25Z" stroke="#000000" stroke-miterlimit="8" fill="#4472C4" fill-rule="evenodd"/><path d="M419.5 306.75 522.833 306.75 522.833 300.5 546.5 313 522.833 325.5 522.833 319.25 419.5 319.25Z" stroke="#000000" stroke-miterlimit="8" fill="#4472C4" fill-rule="evenodd"/><path d="M403.5 427 519.042 427 519.042 420.5 546.5 433.5 519.042 446.5 519.042 440 403.5 440Z" stroke="#000000" stroke-miterlimit="8" fill="#4472C4" fill-rule="evenodd"/><text font-family="SimSun,SimSun_MSFontService,sans-serif" font-weight="700" font-size="21" transform="translate(420.829 169)">Mg<tspan font-size="18" x="21.6667" y="-8">2+</tspan><tspan font-size="21" x="39.6667" y="0">,ATP</tspan><tspan font-size="21" x="10.9506" y="130">Mg</tspan><tspan font-size="18" x="32.6172" y="122">2+</tspan><tspan font-size="21" x="50.6172" y="130">,ATP</tspan><tspan font-size="21" x="4.08356" y="249">Mg</tspan><tspan font-size="18" x="25.7502" y="241">2+</tspan><tspan font-size="21" x="43.7502" y="249">,ATP</tspan><tspan font-size="21" x="-23.4165" y="65">T4</tspan><tspan font-size="21" x="-1.74982" y="65">-</tspan><tspan font-size="21" x="9.08353" y="65">DNA </tspan><tspan font-size="21" x="52.4168" y="65">连接酶</tspan><tspan font-size="21" x="-23.4165" y="193">T4</tspan><tspan font-size="21" x="-1.74982" y="193">-</tspan><tspan font-size="21" x="9.08353" y="193">DNA </tspan><tspan font-size="21" x="52.4168" y="193">连接酶</tspan><tspan font-size="21" x="-25.9165" y="313">T4</tspan><tspan font-size="21" x="-4.24988" y="313">-</tspan><tspan font-size="21" x="6.58347" y="313">DNA </tspan><tspan font-size="21" x="49.9168" y="313">连接酶</tspan><tspan fill="#000808" font-family="Microsoft YaHei,Microsoft YaHei_MSFontService,sans-serif" font-size="32" x="-188.265" y="386">T4</tspan><tspan fill="#000808" font-family="Microsoft YaHei,Microsoft YaHei_MSFontService,sans-serif" font-size="32" x="-148.599" y="386">-</tspan><tspan fill="#000808" font-family="Microsoft YaHei,Microsoft YaHei_MSFontService,sans-serif" font-size="32" x="-134.599" y="386">DNA </tspan><tspan fill="#000808" font-family="Microsoft YaHei,Microsoft YaHei_MSFontService,sans-serif" font-size="32" x="-48.5988" y="386">连接酶各种催化反应活性</tspan></text></g></svg>