<svg width="960" height="720" xmlns="http://www.w3.org/2000/svg" xmlns:xlink="http://www.w3.org/1999/xlink" overflow="hidden"><defs><clipPath id="clip0"><rect x="0" y="0" width="960" height="720"/></clipPath></defs><g clip-path="url(#clip0)"><rect x="0" y="0" width="960" height="720" fill="#FFFFFF"/><text font-family="FZFW ZhuZi A YuanS D,FZFW ZhuZi A YuanS D_MSFontService,sans-serif" font-weight="600" font-size="43" transform="translate(41.6 91)">CTAB 法<tspan font-size="43" x="172.167" y="0">流程图</tspan></text><path d="M61 172C61 165.373 66.3726 160 72.9999 160L185 160C191.627 160 197 165.373 197 172L197 220C197 226.627 191.627 232 185 232L72.9999 232C66.3726 232 61 226.627 61 220Z" fill="#CCFFCC" fill-rule="evenodd"/><text font-family="FZFW ZhuZi A YuanS D,FZFW ZhuZi A YuanS D_MSFontService,sans-serif" font-weight="600" font-size="27" transform="translate(75.9285 204)">植物材料</text><path d="M301 172C301 165.373 306.373 160 313 160L425 160C431.627 160 437 165.373 437 172L437 220C437 226.627 431.627 232 425 232L313 232C306.373 232 301 226.627 301 220Z" fill="#CCFFCC" fill-rule="evenodd"/><text font-family="FZFW ZhuZi A YuanS D,FZFW ZhuZi A YuanS D_MSFontService,sans-serif" font-weight="600" font-size="27" transform="translate(329.262 204)">裂解液</text><path d="M301 580C301 573.373 306.373 568 313 568L425 568C431.627 568 437 573.373 437 580L437 628C437 634.627 431.627 640 425 640L313 640C306.373 640 301 634.627 301 628Z" fill="#CCFFCC" fill-rule="evenodd"/><text font-family="FZFW ZhuZi A YuanS D,FZFW ZhuZi A YuanS D_MSFontService,sans-serif" font-weight="600" font-size="27" transform="translate(315.928 612)">上层溶液</text><path d="M37.5001 389.5 121.5 345.5 205.5 389.5 121.5 433.5Z" stroke="#FF99CC" stroke-miterlimit="8" fill="#FF99CC" fill-rule="evenodd"/><text font-family="FZFW ZhuZi A YuanS D,FZFW ZhuZi A YuanS D_MSFontService,sans-serif" font-weight="600" font-size="27" transform="translate(67.9285 397)">液氮研磨</text><path d="M277.5 389.5 365.5 349.5 453.5 389.5 365.5 429.5Z" stroke="#FF99CC" stroke-miterlimit="8" fill="#FF99CC" fill-rule="evenodd"/><text font-family="FZFW ZhuZi A YuanS D,FZFW ZhuZi A YuanS D_MSFontService,sans-serif" font-weight="600" font-size="24" transform="translate(341.262 397)">抽提</text><path d="M29.5001 608.5 117.5 568.5 205.5 608.5 117.5 648.5Z" stroke="#FF99CC" stroke-miterlimit="8" fill="#FF99CC" fill-rule="evenodd"/><text font-family="FZFW ZhuZi A YuanS D,FZFW ZhuZi A YuanS D_MSFontService,sans-serif" font-weight="600" font-size="24" transform="translate(69.2618 616)">细胞裂解</text><path d="M517.5 608.5 605.5 568.5 693.5 608.5 605.5 648.5Z" stroke="#FF99CC" stroke-miterlimit="8" fill="#FF99CC" fill-rule="evenodd"/><text font-family="FZFW ZhuZi A YuanS D,FZFW ZhuZi A YuanS D_MSFontService,sans-serif" font-weight="600" font-size="24" transform="translate(557.262 616)">干燥溶解</text><path d="M517.5 392.5 605.5 352.5 693.5 392.5 605.5 432.5Z" stroke="#FF99CC" stroke-miterlimit="8" fill="#FF99CC" fill-rule="evenodd"/><text font-family="FZFW ZhuZi A YuanS D,FZFW ZhuZi A YuanS D_MSFontService,sans-serif" font-weight="600" font-size="24" transform="translate(557.262 400)">离心洗涤</text><path d="M517.5 192.5 605.5 152.5 693.5 192.5 605.5 232.5Z" stroke="#FF99CC" stroke-miterlimit="8" fill="#FF99CC" fill-rule="evenodd"/><text font-family="FZFW ZhuZi A YuanS D,FZFW ZhuZi A YuanS D_MSFontService,sans-serif" font-weight="600" font-size="24" transform="translate(557.262 200)">酒精沉淀</text><path d="M127.833 247.5 127.833 321.833 123.167 321.833 123.167 247.5ZM132.5 319.5 125.5 333.5 118.5 319.5Z"/><path d="M119.833 458.5 119.833 533.833 115.167 533.833 115.167 458.5ZM124.5 531.5 117.5 545.5 110.5 531.5Z"/><path d="M607.833 247.5 607.833 321.833 603.167 321.833 603.167 247.5ZM612.5 319.5 605.5 333.5 598.5 319.5Z"/><path d="M371.833 241.5 371.833 315.833 367.167 315.833 367.167 241.5ZM376.5 313.5 369.5 327.5 362.5 313.5Z"/><path d="M607.833 464.5 607.833 539.833 603.167 539.833 603.167 464.5ZM612.5 537.5 605.5 551.5 598.5 537.5Z"/><path d="M368.833 451.5 368.833 525.833 364.167 525.833 364.167 451.5ZM373.5 523.5 366.5 537.5 359.5 523.5Z"/><path d="M213.5 608.5 253.5 608.5" stroke="#000000" stroke-width="4.66667" stroke-linejoin="round" stroke-miterlimit="10" fill="none" fill-rule="evenodd"/><path d="M0 0 0.000104987 416" stroke="#000000" stroke-width="4.66667" stroke-linejoin="round" stroke-miterlimit="10" fill="none" fill-rule="evenodd" transform="matrix(1 0 0 -1 253.5 608.5)"/><path d="M253.5 190.167 281.833 190.167 281.833 194.833 253.5 194.833ZM279.5 185.5 293.5 192.5 279.5 199.5Z"/><path d="M437.5 608.5 477.5 608.5" stroke="#000000" stroke-width="4.66667" stroke-linejoin="round" stroke-miterlimit="10" fill="none" fill-rule="evenodd"/><path d="M0 0 0.000104987 416" stroke="#000000" stroke-width="4.66667" stroke-linejoin="round" stroke-miterlimit="10" fill="none" fill-rule="evenodd" transform="matrix(1 0 0 -1 477.5 608.5)"/><path d="M477.5 190.167 505.833 190.167 505.833 194.833 477.5 194.833ZM503.5 185.5 517.5 192.5 503.5 199.5Z"/><path d="M797 372C797 365.373 802.373 360 809 360L921 360C927.627 360 933 365.373 933 372L933 420C933 426.627 927.627 432 921 432L809 432C802.373 432 797 426.627 797 420Z" fill="#CCFFCC" fill-rule="evenodd"/><text font-family="FZFW ZhuZi A YuanS D,FZFW ZhuZi A YuanS D_MSFontService,sans-serif" font-weight="600" font-size="27" transform="translate(808.595 404)">DNA溶液</text><path d="M749.5 390.167 777.833 390.167 777.833 394.833 749.5 394.833ZM775.5 385.5 789.5 392.5 775.5 399.5Z"/><path d="M701.5 608.5 749.5 608.5" stroke="#000000" stroke-width="4.66667" stroke-linejoin="round" stroke-miterlimit="10" fill="none" fill-rule="evenodd"/><path d="M0 0 0.000104987 216" stroke="#000000" stroke-width="4.66667" stroke-linejoin="round" stroke-miterlimit="10" fill="none" fill-rule="evenodd" transform="matrix(1 0 0 -1 749.5 608.5)"/></g></svg>