<svg width="960" height="720" xmlns="http://www.w3.org/2000/svg" xmlns:xlink="http://www.w3.org/1999/xlink" overflow="hidden"><defs><clipPath id="clip0"><rect x="0" y="0" width="960" height="720"/></clipPath></defs><g clip-path="url(#clip0)"><rect x="0" y="0" width="960" height="720" fill="#FFFFFF"/><text font-family="FZFW ZhuZi A YuanS D,FZFW ZhuZi A YuanS D_MSFontService,sans-serif" font-weight="600" font-size="43" transform="translate(41.3319 82)">SDS 法流程图<tspan font-size="27" x="272.5" y="0">（以动物组织为例）</tspan></text><path d="M110 168C110 161.373 115.373 156 122 156L234 156C240.627 156 246 161.373 246 168L246 216C246 222.627 240.627 228 234 228L122 228C115.373 228 110 222.627 110 216Z" fill="#CCFFCC" fill-rule="evenodd"/><text font-family="FZFW ZhuZi A YuanS D,FZFW ZhuZi A YuanS D_MSFontService,sans-serif" font-weight="600" font-size="27" transform="translate(124.232 200)">动物组织</text><path d="M110 576C110 569.373 115.373 564 122 564L234 564C240.627 564 246 569.373 246 576L246 624C246 630.627 240.627 636 234 636L122 636C115.373 636 110 630.627 110 624Z" fill="#CCFFCC" fill-rule="evenodd"/><text font-family="FZFW ZhuZi A YuanS D,FZFW ZhuZi A YuanS D_MSFontService,sans-serif" font-weight="600" font-size="27" transform="translate(124.232 608)">细胞裂解</text><path d="M390 368C390 361.373 395.373 356 402 356L514 356C520.627 356 526 361.373 526 368L526 416C526 422.627 520.627 428 514 428L402 428C395.373 428 390 422.627 390 416Z" fill="#CCFFCC" fill-rule="evenodd"/><text font-family="FZFW ZhuZi A YuanS D,FZFW ZhuZi A YuanS D_MSFontService,sans-serif" font-weight="600" font-size="27" transform="translate(404.232 400)">上层溶液</text><path d="M94.5001 392.5 178.5 348.5 262.5 392.5 178.5 436.5Z" stroke="#FF99CC" stroke-miterlimit="8" fill="#FF99CC" fill-rule="evenodd"/><text font-family="FZFW ZhuZi A YuanS D,FZFW ZhuZi A YuanS D_MSFontService,sans-serif" font-weight="600" font-size="27" transform="translate(124.232 400)">组织匀浆</text><path d="M370.5 188.5 458.5 148.5 546.5 188.5 458.5 228.5Z" stroke="#FF99CC" stroke-miterlimit="8" fill="#FF99CC" fill-rule="evenodd"/><text font-family="FZFW ZhuZi A YuanS D,FZFW ZhuZi A YuanS D_MSFontService,sans-serif" font-weight="600" font-size="24" transform="translate(433.565 195)">抽提</text><path d="M650.5 388.5 738.5 348.5 826.5 388.5 738.5 428.5Z" stroke="#FF99CC" stroke-miterlimit="8" fill="#FF99CC" fill-rule="evenodd"/><text font-family="FZFW ZhuZi A YuanS D,FZFW ZhuZi A YuanS D_MSFontService,sans-serif" font-weight="600" font-size="24" transform="translate(689.565 395)">干燥溶解</text><path d="M650.5 196.5 738.5 156.5 826.5 196.5 738.5 236.5Z" stroke="#FF99CC" stroke-miterlimit="8" fill="#FF99CC" fill-rule="evenodd"/><text font-family="FZFW ZhuZi A YuanS D,FZFW ZhuZi A YuanS D_MSFontService,sans-serif" font-weight="600" font-size="24" transform="translate(689.565 203)">离心洗涤</text><path d="M370.5 596.5 458.5 556.5 546.5 596.5 458.5 636.5Z" stroke="#FF99CC" stroke-miterlimit="8" fill="#FF99CC" fill-rule="evenodd"/><text font-family="FZFW ZhuZi A YuanS D,FZFW ZhuZi A YuanS D_MSFontService,sans-serif" font-weight="600" font-size="24" transform="translate(409.565 603)">酒精沉淀</text><path d="M180.833 246.5 180.833 320.833 176.167 320.833 176.167 246.5ZM185.5 318.5 178.5 332.5 171.5 318.5Z"/><path d="M180.833 454.5 180.833 528.833 176.167 528.833 176.167 454.5ZM185.5 526.5 178.5 540.5 171.5 526.5Z"/><path d="M740.833 254.5 740.833 328.833 736.167 328.833 736.167 254.5ZM745.5 326.5 738.5 340.5 731.5 326.5Z"/><path d="M460.833 454.5 460.833 528.833 456.167 528.833 456.167 454.5ZM465.5 526.5 458.5 540.5 451.5 526.5Z"/><path d="M740.833 446.5 740.833 520.833 736.167 520.833 736.167 446.5ZM745.5 518.5 738.5 532.5 731.5 518.5Z"/><path d="M460.833 246.5 460.833 320.833 456.167 320.833 456.167 246.5ZM465.5 318.5 458.5 332.5 451.5 318.5Z"/><path d="M280.5 604.5 320.5 604.5" stroke="#000000" stroke-width="4.66667" stroke-linejoin="round" stroke-miterlimit="10" fill="none" fill-rule="evenodd"/><path d="M0 0 0.000104987 416" stroke="#000000" stroke-width="4.66667" stroke-linejoin="round" stroke-miterlimit="10" fill="none" fill-rule="evenodd" transform="matrix(1 0 0 -1 320.5 604.5)"/><path d="M320.5 186.167 348.833 186.167 348.833 190.833 320.5 190.833ZM346.5 181.5 360.5 188.5 346.5 195.5Z"/><path d="M556.5 604.5 592.5 604.5" stroke="#000000" stroke-width="4.66667" stroke-linejoin="round" stroke-miterlimit="10" fill="none" fill-rule="evenodd"/><path d="M590.5 604.5 590.5 196.5" stroke="#000000" stroke-width="4.66667" stroke-linejoin="round" stroke-miterlimit="10" fill="none" fill-rule="evenodd"/><path d="M592.5 194.167 616.833 194.167 616.833 198.833 592.5 198.833ZM614.5 189.5 628.5 196.5 614.5 203.5Z"/><path d="M670 560C670 553.373 675.373 548 682 548L794 548C800.627 548 806 553.373 806 560L806 608C806 614.627 800.627 620 794 620L682 620C675.373 620 670 614.627 670 608Z" fill="#CCFFCC" fill-rule="evenodd"/><text font-family="FZFW ZhuZi A YuanS D,FZFW ZhuZi A YuanS D_MSFontService,sans-serif" font-weight="600" font-size="27" transform="translate(680.898 592)">DNA溶液</text></g></svg>