<svg width="960" height="720" xmlns="http://www.w3.org/2000/svg" xmlns:xlink="http://www.w3.org/1999/xlink" overflow="hidden"><defs><clipPath id="clip0"><rect x="0" y="0" width="960" height="720"/></clipPath></defs><g clip-path="url(#clip0)"><rect x="0" y="0" width="960" height="720" fill="#FFFFFF"/><text fill="#FF0000" font-family="FZFW ZhuZi A YuanS D,FZFW ZhuZi A YuanS D_MSFontService,sans-serif" font-weight="600" font-size="43" transform="translate(319.717 53)">Southern <tspan font-size="43" x="188.833" y="0">杂交</tspan></text><path d="M430 109C439.033 109.681 448.23 109.34 457.099 111.213 459.726 111.723 461.204 115.298 463.832 115.979 467.445 117 471.223 115.979 475 115.979" stroke="#000000" stroke-width="4" stroke-linejoin="round" stroke-miterlimit="10" fill="none" fill-rule="evenodd"/><path d="M496 112.93C500.482 111.408 505.13 109.887 509.611 108.366 511.935 107.521 516.417 106 516.417 106 528.202 118 521.231 115.296 537 115.296" stroke="#000000" stroke-width="4" stroke-linejoin="round" stroke-miterlimit="10" fill="none" fill-rule="evenodd"/><path d="M491 91.6842C507.352 86.7895 500.272 86 511.904 89.4737 520.67 98 514.264 93.8947 535 93.8947" stroke="#000000" stroke-width="4" stroke-linejoin="round" stroke-miterlimit="10" fill="none" fill-rule="evenodd"/><path d="M462 128.93C466.482 127.408 471.13 125.887 475.611 124.366 477.935 123.521 482.417 122 482.417 122 494.202 134 487.231 131.296 503 131.296" stroke="#000000" stroke-width="4" stroke-linejoin="round" stroke-miterlimit="10" fill="none" fill-rule="evenodd"/><path d="M512 128.93C516.482 127.408 521.13 125.887 525.611 124.366 527.935 123.521 532.417 122 532.417 122 544.202 134 537.231 131.296 553 131.296" stroke="#000000" stroke-width="4" stroke-linejoin="round" stroke-miterlimit="10" fill="none" fill-rule="evenodd"/><path d="M528 144.93C532.482 143.408 537.13 141.887 541.611 140.366 543.935 139.521 548.417 138 548.417 138 560.202 150 553.231 147.296 569 147.296" stroke="#000000" stroke-width="4" stroke-linejoin="round" stroke-miterlimit="10" fill="none" fill-rule="evenodd"/><path d="M398 137C407.033 137.681 416.23 137.34 425.099 139.213 427.726 139.723 429.204 143.298 431.832 143.979 435.445 145 439.223 143.979 443 143.979" stroke="#000000" stroke-width="4" stroke-linejoin="round" stroke-miterlimit="10" fill="none" fill-rule="evenodd"/><path d="M464 141.352C468.482 139.958 473.13 138.563 477.611 137.169 479.935 136.394 484.417 135 484.417 135 496.202 146 489.231 143.521 505 143.521" stroke="#000000" stroke-width="4" stroke-linejoin="round" stroke-miterlimit="10" fill="none" fill-rule="evenodd"/><path d="M459 109.158C475.352 103.855 468.272 103 479.904 106.763 488.671 116 482.264 111.553 503 111.553" stroke="#000000" stroke-width="4" stroke-linejoin="round" stroke-miterlimit="10" fill="none" fill-rule="evenodd"/><path d="M430 157.352C434.482 155.958 439.13 154.563 443.611 153.169 445.935 152.394 450.417 151 450.417 151 462.202 162 455.231 159.521 471 159.521" stroke="#000000" stroke-width="4" stroke-linejoin="round" stroke-miterlimit="10" fill="none" fill-rule="evenodd"/><path d="M480 157.352C484.482 155.958 489.13 154.563 493.611 153.169 495.935 152.394 500.417 151 500.417 151 512.202 162 505.231 159.521 521 159.521" stroke="#000000" stroke-width="4" stroke-linejoin="round" stroke-miterlimit="10" fill="none" fill-rule="evenodd"/><path d="M496 173.352C500.482 171.958 505.13 170.563 509.611 169.169 511.935 168.394 516.417 167 516.417 167 528.202 178 521.231 175.521 537 175.521" stroke="#000000" stroke-width="4" stroke-linejoin="round" stroke-miterlimit="10" fill="none" fill-rule="evenodd"/><path d="M482 144.93C486.482 143.408 491.13 141.887 495.611 140.366 497.935 139.521 502.417 138 502.417 138 514.202 150 507.231 147.296 523 147.296" stroke="#000000" stroke-width="4" stroke-linejoin="round" stroke-miterlimit="10" fill="none" fill-rule="evenodd"/><path d="M448 160.93C452.482 159.408 457.13 157.887 461.611 156.366 463.935 155.521 468.417 154 468.417 154 480.202 166 473.231 163.296 489 163.296" stroke="#000000" stroke-width="4" stroke-linejoin="round" stroke-miterlimit="10" fill="none" fill-rule="evenodd"/><path d="M498 160.93C502.482 159.408 507.13 157.887 511.611 156.366 513.935 155.521 518.417 154 518.417 154 530.202 166 523.231 163.296 539 163.296" stroke="#000000" stroke-width="4" stroke-linejoin="round" stroke-miterlimit="10" fill="none" fill-rule="evenodd"/><path d="M514 176.93C518.482 175.408 523.13 173.887 527.611 172.366 529.935 171.521 534.417 170 534.417 170 546.202 182 539.231 179.296 555 179.296" stroke="#000000" stroke-width="4" stroke-linejoin="round" stroke-miterlimit="10" fill="none" fill-rule="evenodd"/><path d="M450 173.352C454.482 171.958 459.13 170.563 463.611 169.169 465.935 168.394 470.417 167 470.417 167 482.202 178 475.231 175.521 491 175.521" stroke="#000000" stroke-width="4" stroke-linejoin="round" stroke-miterlimit="10" fill="none" fill-rule="evenodd"/><path d="M446 141.158C461.981 135.855 455.061 135 466.429 138.763 474.996 148 468.736 143.553 489 143.553" stroke="#000000" stroke-width="4" stroke-linejoin="round" stroke-miterlimit="10" fill="none" fill-rule="evenodd"/><path d="M466 189.352C470.482 187.958 475.13 186.563 479.611 185.169 481.935 184.394 486.417 183 486.417 183 498.202 194 491.231 191.521 507 191.521" stroke="#000000" stroke-width="4" stroke-linejoin="round" stroke-miterlimit="10" fill="none" fill-rule="evenodd"/><path d="M45.7365 125.833C77.8118 109.667 60.9388 110.5 96.1882 128 98.5271 141.333 102.035 153.333 93.8494 166.833 92.1788 169.5 87.6682 165.333 84.6612 164.667 76.3082 151.833 77.4776 142 91.5106 137.167 101.868 127.167 116.904 129.333 130.602 128 126.593 139.667 121.08 139 109.887 141.833 106.88 140.333 102.202 140.167 100.699 137.167 99.3624 134.333 101.868 131 103.038 128 107.715 115.333 112.727 118.167 121.414 109.833 124.421 110.5 128.932 109.333 130.602 112 131.772 113.833 128.096 116.667 125.925 116.667 120.412 116.667 115.233 113.5 109.887 112 123.085 99 116.235 102.333 128.264 98.3333 144.301 99.1667 160.506 98 176.376 100.667 179.551 101.167 184.729 104.667 183.226 107.5 179.384 115.167 155.995 116 151.151 116.667 162.678 109.833 174.706 103.833 187.736 100.667 191.579 101.333 196.256 100.333 199.264 102.833 201.769 104.833 201.602 108.833 201.602 112 201.602 138.167 205.445 133 192.414 141.833 193.918 139.5 194.753 133.167 196.925 134.833 200.767 137.667 201.602 143.833 201.602 148.667 201.602 160.167 198.428 171.5 196.925 182.833 174.038 182.167 150.816 184.5 128.264 180.667 125.089 180.167 128.932 174.167 130.602 171.5 132.106 169.167 135.113 168.333 137.452 166.833 138.955 168.333 141.628 169.333 141.962 171.5 143.466 179.5 134.946 180 130.602 182.833 128.765 184 127.428 186 125.925 187.5 125.089 185.167 123.252 183 123.586 180.667 124.087 178 126.426 176 128.264 173.833 135.28 165.333 140.793 165 151.151 162.333 151.986 162.5 168.692 164.333 169.527 169.167 173.369 190.167 171.532 188.5 160.339 192 156.998 182.167 160.172 179.333 162.678 169.167 167.856 125.333 160.506 168.5 169.527 141.833 171.532 135.833 170.864 128.833 174.038 123.5 175.708 120.833 186.734 117.667 190.075 116.667 218.141 118.667 217.64 113 229 130.333 217.974 145.167 214.132 153.5 196.925 157.833 189.24 150 182.892 150.333 171.699 148.667 145.136 137.333 166.52 145 141.962 139.5 132.774 137.5 114.565 132.667 114.565 132.667 106.88 133.333 98.5271 131.667 91.5106 134.833 88.6706 136.167 89.0047 140.833 89.3388 144 90.6753 156.833 96.3553 163.333 107.548 166.833 111.391 166.167 116.068 167.167 119.075 164.667 125.591 159.333 117.906 145.5 116.736 141.833 100.699 146.833 105.042 152.333 103.038 171.5 103.873 174.5 102.536 179.333 105.376 180.667 107.548 181.833 120.245 177.167 123.586 176 113.729 175.333 103.706 173.833 93.8494 173.833 66.4518 173.833 66.2847 171.167 75.4729 180.667 80.8188 179.833 86.6659 180.667 91.5106 178.333 103.706 172.167 79.3153 162.833 77.8118 162.333 57.5976 155.167 37.3835 154.667 16 153.167 17.5035 156.167 17.6706 160.333 20.5106 162.333 23.6847 164.667 28.1953 164.333 32.0376 164.667 48.0753 165.833 64.1129 166.167 80.1506 166.833 64.4471 156.5 68.1224 163 64.1129 150.833 66.7859 132.333 61.9412 115.5 80.1506 109.833 82.3224 116.333 85.1624 120.667 80.1506 128 78.8141 130 75.64 129.5 73.3012 130.333 65.6165 129.5 53.2541 135.167 50.4141 128 47.9082 121.667 62.6094 121.833 68.6235 118.833 71.6306 117.333 74.8047 115.833 77.8118 114.333 82.1553 112.167 91.5106 109.833 91.5106 109.833 106.045 110.5 120.913 108.833 135.113 112 137.452 112.5 134.445 117.167 132.774 118.833 131.104 120.5 128.264 120.333 125.925 121.167 116.736 119.667 107.214 120 98.5271 116.667 88.6706 112.833 104.708 101.167 107.548 98.3333" stroke="#000000" stroke-width="4" stroke-linejoin="round" stroke-miterlimit="10" fill="none" fill-rule="evenodd"/><path d="M132.368 114.346C157.427 120.88 150.789 118.869 153.61 146.513 150.789 147.183 147.802 149.696 144.98 148.691 136.683 146.01 142.823 125.403 142.989 125.068 143.819 123.058 147.138 123.56 149.295 122.89 153.61 123.56 158.589 122.555 162.074 125.068 166.886 128.586 162.903 138.806 162.074 142.325 161.41 137.298 158.92 132.272 159.916 127.246 161.078 121.885 178.503 121.047 179.001 120.88 182.486 121.55 186.635 120.88 189.622 122.89 191.447 124.23 191.779 127.079 191.779 129.424 191.779 151.874 194.766 147.518 183.316 155.058 184.643 159.414 189.456 163.937 187.464 167.958 183.482 176 164.065 170.806 159.916 170.136 154.44 153.717 151.121 156.398 166.222 159.414 166.886 161.592 170.371 164.607 168.38 165.78 155.269 173.152 139.338 169.298 125.896 167.958 124.568 165.11 121.747 162.597 121.747 159.414 121.747 151.539 135.355 149.864 138.674 148.691 141.163 152.377 147.802 157.906 138.674 161.592 136.683 162.429 134.525 160.084 132.368 159.414 137.512 146.01 137.512 143.665 151.453 140.147 172.695 140.817 193.937 140.649 215.179 142.325 218 142.492 208.375 146.681 206.715 144.335 203.396 139.644 205.222 132.942 204.558 127.246 205.222 121.55 210.366 114.513 206.715 110.157 186.303 85.3613 160.58 88.8796 134.359 80 135.023 92.2304 134.027 104.628 136.517 116.524 137.015 119.037 140.5 112.67 140.831 110.157 141.827 102.785 139.172 97.4241 132.368 95.0785 127.389 93.4031 102.828 91.0576 100.505 90.7225 92.0411 89.5497 83.4115 87.8743 74.9478 86.534 69.3054 85.6963 63.663 85.0262 58.0205 84.356 46.2378 88.377 43.9145 86.7016 53.7057 110.157 54.8674 112.838 59.3482 111.497 62.1694 112.168 62.8332 109.99 64.6587 107.979 64.3268 105.801 63.8289 101.948 62.8332 92.5654 60.012 95.0785 48.8931 104.796 43.0847 119.372 34.621 131.602 35.2849 135.456 34.4551 148.691 43.0847 148.691 45.574 148.691 47.2335 145.843 49.3909 144.335 48.0633 142.157 47.5654 138.974 45.2421 137.969 39.9316 135.791 32.7956 139.141 28.1488 135.791 24.4979 133.11 24 122.89 24 122.89" stroke="#000000" stroke-width="4" stroke-linejoin="round" stroke-miterlimit="10" fill="none" fill-rule="evenodd"/><path d="M592 141 734 141 734 145 592 145ZM732 137 744 143 732 149Z" fill="#FF00FF"/><rect x="775.5" y="46.5001" width="160" height="192" stroke="#808080" stroke-miterlimit="8" fill="#808080"/><path d="M783 78 823 78.0001" stroke="#FFFFFF" stroke-width="8" stroke-linejoin="round" stroke-miterlimit="10" fill="none" fill-rule="evenodd"/><path d="M831 78 871 78.0001" stroke="#FFFFFF" stroke-width="8" stroke-linejoin="round" stroke-miterlimit="10" fill="none" fill-rule="evenodd"/><path d="M887 78 927 78.0001" stroke="#FFFFFF" stroke-width="8" stroke-linejoin="round" stroke-miterlimit="10" fill="none" fill-rule="evenodd"/><path d="M783 102 823 102" stroke="#FFFFFF" stroke-width="4" stroke-linejoin="round" stroke-miterlimit="10" fill="none" fill-rule="evenodd"/><path d="M783 118 823 118" stroke="#FFFFFF" stroke-width="4" stroke-linejoin="round" stroke-miterlimit="10" fill="none" fill-rule="evenodd"/><path d="M783 134 823 134" stroke="#FFFFFF" stroke-width="4" stroke-linejoin="round" stroke-miterlimit="10" fill="none" fill-rule="evenodd"/><path d="M783 150 823 150" stroke="#FFFFFF" stroke-width="4" stroke-linejoin="round" stroke-miterlimit="10" fill="none" fill-rule="evenodd"/><path d="M783 166 823 166" stroke="#FFFFFF" stroke-width="4" stroke-linejoin="round" stroke-miterlimit="10" fill="none" fill-rule="evenodd"/><path d="M783 182 823 182" stroke="#FFFFFF" stroke-width="4" stroke-linejoin="round" stroke-miterlimit="10" fill="none" fill-rule="evenodd"/><path d="M783 198 823 198" stroke="#FFFFFF" stroke-width="4" stroke-linejoin="round" stroke-miterlimit="10" fill="none" fill-rule="evenodd"/><path d="M783 206 823 206" stroke="#FFFFFF" stroke-width="4" stroke-linejoin="round" stroke-miterlimit="10" fill="none" fill-rule="evenodd"/><path d="M783 174 823 174" stroke="#FFFFFF" stroke-width="4" stroke-linejoin="round" stroke-miterlimit="10" fill="none" fill-rule="evenodd"/><path d="M831 102 871 102" stroke="#FFFFFF" stroke-width="4" stroke-linejoin="round" stroke-miterlimit="10" fill="none" fill-rule="evenodd"/><path d="M831 118 871 118" stroke="#FFFFFF" stroke-width="4" stroke-linejoin="round" stroke-miterlimit="10" fill="none" fill-rule="evenodd"/><path d="M831 134 871 134" stroke="#FFFFFF" stroke-width="4" stroke-linejoin="round" stroke-miterlimit="10" fill="none" fill-rule="evenodd"/><path d="M831 150 871 150" stroke="#FFFFFF" stroke-width="4" stroke-linejoin="round" stroke-miterlimit="10" fill="none" fill-rule="evenodd"/><path d="M831 166 871 166" stroke="#FFFFFF" stroke-width="4" stroke-linejoin="round" stroke-miterlimit="10" fill="none" fill-rule="evenodd"/><path d="M831 182 871 182" stroke="#FFFFFF" stroke-width="4" stroke-linejoin="round" stroke-miterlimit="10" fill="none" fill-rule="evenodd"/><path d="M831 198 871 198" stroke="#FFFFFF" stroke-width="4" stroke-linejoin="round" stroke-miterlimit="10" fill="none" fill-rule="evenodd"/><path d="M831 206 871 206" stroke="#FFFFFF" stroke-width="4" stroke-linejoin="round" stroke-miterlimit="10" fill="none" fill-rule="evenodd"/><path d="M831 142 871 142" stroke="#FFFFFF" stroke-width="4" stroke-linejoin="round" stroke-miterlimit="10" fill="none" fill-rule="evenodd"/><path d="M831 174 871 174" stroke="#FFFFFF" stroke-width="4" stroke-linejoin="round" stroke-miterlimit="10" fill="none" fill-rule="evenodd"/><path d="M887 102 927 102" stroke="#FFFFFF" stroke-width="4" stroke-linejoin="round" stroke-miterlimit="10" fill="none" fill-rule="evenodd"/><path d="M887 174 927 174" stroke="#FFFFFF" stroke-width="4" stroke-linejoin="round" stroke-miterlimit="10" fill="none" fill-rule="evenodd"/><path d="M887 198 927 198" stroke="#FFFFFF" stroke-width="4" stroke-linejoin="round" stroke-miterlimit="10" fill="none" fill-rule="evenodd"/><path d="M887 134 927 134" stroke="#FFFFFF" stroke-width="4" stroke-linejoin="round" stroke-miterlimit="10" fill="none" fill-rule="evenodd"/><text font-family="FZFW ZhuZi A YuanS D,FZFW ZhuZi A YuanS D_MSFontService,sans-serif" font-weight="600" font-size="37" transform="translate(880.6 37)">M<tspan font-size="37" x="-88" y="0">1</tspan><tspan font-size="37" x="-40" y="0">2</tspan></text><rect x="775.5" y="513.5" width="160" height="192" stroke="#808080" stroke-miterlimit="8" fill="#808080"/><path d="M783 569 823 569" stroke="#FFFFFF" stroke-width="4" stroke-linejoin="round" stroke-miterlimit="10" fill="none" fill-rule="evenodd"/><path d="M783 601 823 601" stroke="#FFFFFF" stroke-width="4" stroke-linejoin="round" stroke-miterlimit="10" fill="none" fill-rule="evenodd"/><path d="M783 673 823 673" stroke="#FFFFFF" stroke-width="4" stroke-linejoin="round" stroke-miterlimit="10" fill="none" fill-rule="evenodd"/><path d="M831 585 871 585" stroke="#FFFFFF" stroke-width="4" stroke-linejoin="round" stroke-miterlimit="10" fill="none" fill-rule="evenodd"/><path d="M831 617 871 617" stroke="#FFFFFF" stroke-width="4" stroke-linejoin="round" stroke-miterlimit="10" fill="none" fill-rule="evenodd"/><path d="M831 665 871 665" stroke="#FFFFFF" stroke-width="4" stroke-linejoin="round" stroke-miterlimit="10" fill="none" fill-rule="evenodd"/><text font-family="FZFW ZhuZi A YuanS D,FZFW ZhuZi A YuanS D_MSFontService,sans-serif" font-weight="600" font-size="37" transform="translate(792.8 504)">1<tspan font-size="37" x="48" y="0">2</tspan></text><rect x="268.5" y="520.5" width="160" height="192" stroke="#000000" stroke-miterlimit="8" fill="#FFFFFF"/><path d="M183.471 535.673 165.159 547.673 147.416 559.418 139.001 565.153 131.034 570.818 123.489 576.305 116.522 581.593 110.121 586.69 104.508 591.627 99.6987 596.254 95.7252 600.601 92.8018 604.618 92.953 604.377 90.8905 608.252 91.048 607.862 90.048 611.362 90.1216 610.695 90.3091 613.883 90.1168 613.137 90.8043 614.575 90.5479 614.171 91.6729 615.546 91.305 615.198 92.93 616.385 94.8506 617.442 97.1573 618.409 99.87 619.286 106.485 620.935 114.279 622.279 123.064 623.391 132.509 624.322 142.388 625.005 162.599 626.002 172.327 626.376 181.554 626.626 189.95 626.939 198.111 627.289 197.94 631.285 189.8 630.936 181.446 630.624 172.173 630.374 162.401 629.998 142.112 628.995 132.116 628.303 122.561 627.359 113.596 626.221 105.515 624.815 98.63 623.089 95.5927 622.091 92.8994 620.933 90.57 619.615 88.945 618.427C88.8081 618.327 88.6844 618.21 88.5771 618.079L87.4521 616.704C87.3508 616.58 87.2647 616.445 87.1957 616.3L86.5082 614.863C86.3965 614.629 86.3312 614.376 86.3159 614.117L86.1284 610.93C86.1152 610.705 86.1401 610.48 86.202 610.263L87.202 606.763C87.2406 606.628 87.2934 606.497 87.3595 606.373L89.422 602.498C89.4667 602.414 89.5171 602.334 89.5732 602.257L92.7748 597.899 96.9263 593.371 101.867 588.623 107.629 583.56 114.103 578.407 121.136 573.07 128.716 567.557 136.749 561.847 145.209 556.082 162.966 544.327 181.279 532.327ZM196.458 623.16 208 630 195.603 635.129Z" fill="#FF00FF"/><path d="M0.0148144-1.99994 260.015-0.0740176 259.985 3.92587-0.0148144 1.99994ZM258.045-4.08872 270 2 257.956 7.91095Z" fill="#FF00FF" transform="matrix(1 0 0 -1 481 649)"/><text fill="#3333FF" font-family="FZFW ZhuZi A YuanS D,FZFW ZhuZi A YuanS D_MSFontService,sans-serif" font-weight="600" font-size="27" transform="translate(507.933 582)">与探针同源杂交<tspan font-size="27" x="0" y="32">的</tspan><tspan font-size="27" x="26.6667" y="32">基因</tspan><tspan font-size="27" x="88" y="32">DNA </tspan>片段<tspan font-size="27" x="-460.733" y="-352">基因组</tspan><tspan font-size="27" x="-372.733" y="-352">DNA</tspan><tspan font-size="27" x="-86.5332" y="-348">DNA </tspan>酶<tspan font-size="27" x="8.13342" y="-348">切片段</tspan></text><path d="M232 134 366 134 366 138 232 138ZM364 130 376 136 364 142Z" fill="#FF00FF"/><text fill="#3333FF" font-family="FZFW ZhuZi A YuanS D,FZFW ZhuZi A YuanS D_MSFontService,sans-serif" font-weight="600" font-size="27" transform="translate(258.767 120)">内切酶</text><path d="M898.631 256.898 865.006 268.085 832.011 279.146 815.876 284.462 800.262 289.708 785.005 294.773 770.382 299.647 756.385 304.334 743.07 308.772 730.564 312.899 718.954 316.832 708.192 320.398 698.566 323.586 692.125 325.743 690.855 321.949 697.309 319.789 706.933 316.602 717.671 313.043 729.311 309.101 741.805 304.978 755.115 300.541 769.118 295.853 783.745 290.977 798.988 285.917 814.624 280.663 830.739 275.354 863.744 264.29 897.369 253.102ZM695.28 328.909 682 327 691.495 317.521Z" fill="#FF00FF"/><text fill="#3333FF" font-family="FZFW ZhuZi A YuanS D,FZFW ZhuZi A YuanS D_MSFontService,sans-serif" font-weight="600" font-size="27" transform="translate(73.4 689)">NC <tspan font-size="27" x="49.1667" y="0">或</tspan><tspan font-size="27" x="75.8333" y="0">尼龙膜</tspan></text><path d="M148 434 148 498" stroke="#3333FF" stroke-width="4" stroke-linejoin="round" stroke-miterlimit="10" fill="none" fill-rule="evenodd"/><path d="M148 498 476 498" stroke="#3333FF" stroke-width="4" stroke-linejoin="round" stroke-miterlimit="10" fill="none" fill-rule="evenodd"/><path d="M476 434 476 498" stroke="#3333FF" stroke-width="4" stroke-linejoin="round" stroke-miterlimit="10" fill="none" fill-rule="evenodd"/><path d="M172 482C177.333 480.667 182.667 479.333 188 474 193.333 468.667 200 454 204 450" stroke="#000000" stroke-width="4" stroke-linejoin="round" stroke-miterlimit="10" fill="none" fill-rule="evenodd"/><path d="M204 450 412 450" stroke="#000000" stroke-width="4" stroke-linejoin="round" stroke-miterlimit="10" fill="none" fill-rule="evenodd"/><path d="M412 450C414 459.333 416 468.667 420 474 424 479.333 433.333 480.667 436 482" stroke="#000000" stroke-width="4" stroke-linejoin="round" stroke-miterlimit="10" fill="none" fill-rule="evenodd"/><rect x="212.5" y="426.5" width="192" height="16" stroke="#000000" stroke-miterlimit="8" fill="#808080"/><path d="M212 417 404 418" stroke="#FF5050" stroke-width="4" stroke-linejoin="round" stroke-miterlimit="10" fill="none" fill-rule="evenodd"/><path d="M212 409 404 409" stroke="#000000" stroke-width="4" stroke-linejoin="round" stroke-miterlimit="10" fill="none" fill-rule="evenodd"/><path d="M212 401 404 401" stroke="#000000" stroke-width="4" stroke-linejoin="round" stroke-miterlimit="10" fill="none" fill-rule="evenodd"/><path d="M212.5 394.5 404.5 394.5" stroke="#000000" stroke-width="1.33333" stroke-linejoin="round" stroke-miterlimit="10" fill="none" fill-rule="evenodd"/><path d="M212.5 386.5 404.5 386.5" stroke="#000000" stroke-width="1.33333" stroke-linejoin="round" stroke-miterlimit="10" fill="none" fill-rule="evenodd"/><path d="M212.5 370.5 404.5 370.5" stroke="#000000" stroke-width="1.33333" stroke-linejoin="round" stroke-miterlimit="10" fill="none" fill-rule="evenodd"/><path d="M212.5 362.5 404.5 362.5" stroke="#000000" stroke-linejoin="round" stroke-miterlimit="10" fill="none" fill-rule="evenodd"/><path d="M212.5 378.5 404.5 378.5" stroke="#000000" stroke-width="1.33333" stroke-linejoin="round" stroke-miterlimit="10" fill="none" fill-rule="evenodd"/><path d="M212.5 346.5 404.5 346.5" stroke="#000000" stroke-width="1.33333" stroke-linejoin="round" stroke-miterlimit="10" fill="none" fill-rule="evenodd"/><path d="M212.5 338.5 404.5 338.5" stroke="#000000" stroke-width="1.33333" stroke-linejoin="round" stroke-miterlimit="10" fill="none" fill-rule="evenodd"/><path d="M212.5 322.5 404.5 322.5" stroke="#000000" stroke-width="1.33333" stroke-linejoin="round" stroke-miterlimit="10" fill="none" fill-rule="evenodd"/><path d="M212.5 314.5 404.5 314.5" stroke="#000000" stroke-linejoin="round" stroke-miterlimit="10" fill="none" fill-rule="evenodd"/><path d="M212.5 330.5 404.5 330.5" stroke="#000000" stroke-width="1.33333" stroke-linejoin="round" stroke-miterlimit="10" fill="none" fill-rule="evenodd"/><path d="M212.5 354.5 404.5 354.5" stroke="#000000" stroke-width="1.33333" stroke-linejoin="round" stroke-miterlimit="10" fill="none" fill-rule="evenodd"/><path d="M204 306 412 307" stroke="#000000" stroke-width="4" stroke-linejoin="round" stroke-miterlimit="10" fill="none" fill-rule="evenodd"/><path d="M100.971 426.029 160.257 485.315 159.315 486.257 100.029 426.971ZM161.672 482.015 164.5 490.5 156.015 487.672Z"/><text fill="#FF5050" font-family="FZFW ZhuZi A YuanS D,FZFW ZhuZi A YuanS D_MSFontService,sans-serif" font-weight="600" font-size="24" transform="translate(37.4485 384)">10<tspan font-size="24" x="28.3333" y="0">×</tspan>SSC <tspan fill="#000000" font-size="24" x="-11.3333" y="29">转移</tspan><tspan fill="#000000" font-size="24" x="36.6667" y="29">缓冲液</tspan></text><path d="M6.68688 0.417533 104.108 16.3421 103.892 17.6579 6.47179 1.7334ZM7.24994 5.23817 0 0 8.5405-2.65705Z" transform="matrix(1 0 0 -1 412.5 458.5)"/><text font-family="FZFW ZhuZi A YuanS D,FZFW ZhuZi A YuanS D_MSFontService,sans-serif" font-weight="600" font-size="24" transform="translate(527.7 454)">Whatman <tspan font-size="24" x="110.667" y="0">滤纸</tspan><tspan font-size="24" x="13.7" y="-39">凝胶</tspan></text><path d="M6.67073 0.623613 128.128 24.3457 127.872 25.6543 6.41514 1.93222ZM7.08488 5.45935 0 0 8.61841-2.3923Z" transform="matrix(1 0 0 -1 404.5 434.5)"/><path d="M6.0727 2.83034 96.3404 56.4268 95.6596 57.5732 5.39198 3.97681ZM4.83668 7.52373 0 0 8.92099 0.644892Z" transform="matrix(1 0 0 -1 404.5 402.5)"/><text font-family="FZFW ZhuZi A YuanS D,FZFW ZhuZi A YuanS D_MSFontService,sans-serif" font-weight="600" font-size="24" transform="translate(506.251 344)">Whatman <tspan font-size="24" x="110.667" y="0">滤纸</tspan></text><path d="M198.381 351.771 148.169 323.079 148.831 321.921 199.043 350.614ZM199.539 347.058 204.5 354.5 195.57 354.004Z"/><text font-family="FZFW ZhuZi A YuanS D,FZFW ZhuZi A YuanS D_MSFontService,sans-serif" font-weight="600" font-size="24" transform="translate(87.7333 328)">纸巾</text><path d="M427.178 305.953 476.512 306.833 476.488 308.167 427.154 307.286ZM428.427 310.642 420.5 306.5 428.57 302.644Z"/><text font-family="FZFW ZhuZi A YuanS D,FZFW ZhuZi A YuanS D_MSFontService,sans-serif" font-weight="600" font-size="24" transform="translate(483.067 309)">玻璃板</text><path d="M164.517 273.834 197.852 274.667 197.819 276 164.483 275.167ZM196.603 271.301 204.5 275.5 196.403 279.299Z"/><text font-family="FZFW ZhuZi A YuanS D,FZFW ZhuZi A YuanS D_MSFontService,sans-serif" font-weight="600" font-size="24" transform="translate(99.0667 283)">重物</text><rect x="212" y="458" width="192" height="40" stroke="#3333FF" stroke-width="4" stroke-miterlimit="8" fill="#FFFFFF"/><text font-family="FZFW ZhuZi A YuanS D,FZFW ZhuZi A YuanS D_MSFontService,sans-serif" font-weight="600" font-size="27" transform="translate(261.4 487)">支持物</text><rect x="212" y="266" width="192" height="32" stroke="#FF00FF" stroke-width="4" stroke-miterlimit="8" fill="#FFFFFF"/><text font-family="FZFW ZhuZi A YuanS D,FZFW ZhuZi A YuanS D_MSFontService,sans-serif" font-weight="600" font-size="27" transform="translate(277.4 290)">500g</text><path d="M404.5 474.5 476.5 474.5" stroke="#000000" stroke-linejoin="round" stroke-miterlimit="10" stroke-dasharray="1 1" fill="none" fill-rule="evenodd"/><path d="M404.5 481.5 476.5 481.5" stroke="#000000" stroke-linejoin="round" stroke-miterlimit="10" stroke-dasharray="4 3" fill="none" fill-rule="evenodd"/><path d="M404.5 489.5 476.5 489.5" stroke="#000000" stroke-linejoin="round" stroke-miterlimit="10" stroke-dasharray="4 3 1 3" fill="none" fill-rule="evenodd"/><path d="M404.5 465.5 476.5 465.5" stroke="#000000" stroke-linejoin="round" stroke-miterlimit="10" stroke-dasharray="4 3" fill="none" fill-rule="evenodd"/><path d="M148.5 489.5 212.5 489.5" stroke="#000000" stroke-linejoin="round" stroke-miterlimit="10" stroke-dasharray="4 3 1 3" fill="none" fill-rule="evenodd"/><path d="M148.5 474.5 212.5 474.5" stroke="#000000" stroke-linejoin="round" stroke-miterlimit="10" stroke-dasharray="1 1" fill="none" fill-rule="evenodd"/><path d="M148.5 481.5 212.5 481.5" stroke="#000000" stroke-linejoin="round" stroke-miterlimit="10" stroke-dasharray="4 3" fill="none" fill-rule="evenodd"/><path d="M148.5 465.5 212.5 465.5" stroke="#000000" stroke-linejoin="round" stroke-miterlimit="10" stroke-dasharray="4 3" fill="none" fill-rule="evenodd"/><path d="M6.53514 1.47565 120.211 39.3675 119.789 40.6325 6.1135 2.74056ZM6.32456 6.32455 0 0 8.85438-1.26491Z" transform="matrix(1 0 0 -1 412.5 417.5)"/><text fill="#FF5050" font-family="FZFW ZhuZi A YuanS D,FZFW ZhuZi A YuanS D_MSFontService,sans-serif" font-weight="600" font-size="24" transform="translate(539.067 379)">NC <tspan font-size="24" x="44.3334" y="0">膜</tspan>或尼龙膜</text></g></svg>