<svg width="1248" height="576" xmlns="http://www.w3.org/2000/svg" xmlns:xlink="http://www.w3.org/1999/xlink" overflow="hidden"><defs><clipPath id="clip0"><rect x="0" y="0" width="1248" height="576"/></clipPath></defs><g clip-path="url(#clip0)"><rect x="0" y="0" width="1248" height="576" fill="#FFFFFF"/><rect x="92.5001" y="171.5" width="144" height="49" stroke="#8FAADC" stroke-width="1.33333" stroke-miterlimit="8" fill="#DAE3F3"/><text font-family="FZFW ZhuZi A YuanS D,FZFW ZhuZi A YuanS D_MSFontService,sans-serif" font-weight="600" font-size="27" transform="translate(138.722 204)">TRE</text><rect x="236.5" y="171.5" width="143" height="49" stroke="#8FAADC" stroke-width="1.33333" stroke-miterlimit="8" fill="#DAE3F3"/><text font-family="FZFW ZhuZi A YuanS D,FZFW ZhuZi A YuanS D_MSFontService,sans-serif" font-weight="600" font-size="27" transform="translate(246.122 204)">pCMVmin</text><rect x="379.5" y="171.5" width="157" height="49" stroke="#8FAADC" stroke-width="1.33333" stroke-miterlimit="8" fill="#DAE3F3"/><text font-family="FZFW ZhuZi A YuanS D,FZFW ZhuZi A YuanS D_MSFontService,sans-serif" font-weight="600" font-size="27" transform="translate(394.69 204)">Transgene</text><rect x="536.5" y="171.5" width="104" height="49" stroke="#8FAADC" stroke-width="1.33333" stroke-miterlimit="8" fill="#DAE3F3"/><text font-family="FZFW ZhuZi A YuanS D,FZFW ZhuZi A YuanS D_MSFontService,sans-serif" font-weight="600" font-size="27" transform="translate(570.857 204)">pA<tspan font-size="27" x="-75.7401" y="-90">e</tspan><tspan font-size="27" x="-61.4068" y="-90">xpression</tspan></text><path d="M331.5 171.5 331.5 154.9C331.5 122.025 358.15 95.375 391.025 95.375L452.75 95.375 452.75 84.5001 474.5 106.25 452.75 128 452.75 117.125 391.025 117.125C370.163 117.125 353.25 134.038 353.25 154.9L353.25 171.5Z" stroke="#FFD966" stroke-width="1.33333" stroke-miterlimit="8" fill="#FFE699" fill-rule="evenodd"/><path d="M123.5 102.76C138.555 102.76 150.76 90.5554 150.76 75.5001L192.24 75.5001C192.24 90.5554 204.445 102.76 219.5 102.76L219.5 144.24C204.445 144.24 192.24 156.445 192.24 171.5L150.76 171.5C150.76 156.445 138.555 144.24 123.5 144.24Z" stroke="#A9D18E" stroke-width="1.33333" stroke-miterlimit="8" fill="#C5E0B4" fill-rule="evenodd"/><path d="M207.5 123.5 259.5 123.5 283.5 147.5 259.5 171.5 207.5 171.5Z" stroke="#CBA9E5" stroke-width="1.33333" stroke-miterlimit="8" fill="#CBA9E5" fill-rule="evenodd"/><rect x="95.5001" y="413.5" width="143" height="48" stroke="#8FAADC" stroke-width="1.33333" stroke-miterlimit="8" fill="#DAE3F3"/><text font-family="FZFW ZhuZi A YuanS D,FZFW ZhuZi A YuanS D_MSFontService,sans-serif" font-weight="600" font-size="27" transform="translate(140.844 445)">TRE</text><rect x="238.5" y="413.5" width="144" height="48" stroke="#8FAADC" stroke-width="1.33333" stroke-miterlimit="8" fill="#DAE3F3"/><text font-family="FZFW ZhuZi A YuanS D,FZFW ZhuZi A YuanS D_MSFontService,sans-serif" font-weight="600" font-size="27" transform="translate(248.245 445)">pCMVmin</text><rect x="382.5" y="413.5" width="156" height="48" stroke="#8FAADC" stroke-width="1.33333" stroke-miterlimit="8" fill="#DAE3F3"/><text font-family="FZFW ZhuZi A YuanS D,FZFW ZhuZi A YuanS D_MSFontService,sans-serif" font-weight="600" font-size="27" transform="translate(396.813 445)">Transgene</text><rect x="538.5" y="413.5" width="104" height="48" stroke="#8FAADC" stroke-width="1.33333" stroke-miterlimit="8" fill="#DAE3F3"/><text font-family="FZFW ZhuZi A YuanS D,FZFW ZhuZi A YuanS D_MSFontService,sans-serif" font-weight="600" font-size="27" transform="translate(572.979 445)">pA<tspan font-size="27" x="-75.7402" y="-89">Stop expression</tspan></text><path d="M151.5 333.5C151.5 306.99 172.99 285.5 199.5 285.5 226.01 285.5 247.5 306.99 247.5 333.5 247.5 360.01 226.01 381.5 199.5 381.5 172.99 381.5 151.5 360.01 151.5 333.5Z" stroke="#A9D18E" stroke-width="1.33333" stroke-miterlimit="8" fill="#C5E0B4" fill-rule="evenodd"/><path d="M235.5 339.5 287.5 339.5 311.5 363.5 287.5 387.5 235.5 387.5Z" stroke="#CBA9E5" stroke-width="1.33333" stroke-miterlimit="8" fill="#CBA9E5" fill-rule="evenodd"/><path d="M118.5 333.5 146 286.5 173.5 333.5Z" stroke="#E490A4" stroke-width="1.33333" stroke-miterlimit="8" fill="#E490A4" fill-rule="evenodd"/><path d="M797.5 126.76C812.555 126.76 824.76 114.555 824.76 99.5001L866.24 99.5001C866.24 114.555 878.445 126.76 893.5 126.76L893.5 168.24C878.445 168.24 866.24 180.445 866.24 195.5L824.76 195.5C824.76 180.445 812.555 168.24 797.5 168.24Z" stroke="#A9D18E" stroke-width="1.33333" stroke-miterlimit="8" fill="#C5E0B4" fill-rule="evenodd"/><text font-family="FZFW ZhuZi A YuanS D,FZFW ZhuZi A YuanS D_MSFontService,sans-serif" font-weight="600" font-size="27" transform="translate(1082.11 163)">TetR</text><path d="M935.5 155.5C935.5 128.99 956.99 107.5 983.5 107.5 1010.01 107.5 1031.5 128.99 1031.5 155.5 1031.5 182.01 1010.01 203.5 983.5 203.5 956.99 203.5 935.5 182.01 935.5 155.5Z" stroke="#A9D18E" stroke-width="1.33333" stroke-miterlimit="8" fill="#C5E0B4" fill-rule="evenodd"/><path d="M893.5 277.5 946.5 277.5 970.5 301.5 946.5 325.5 893.5 325.5Z" stroke="#CBA9E5" stroke-width="1.33333" stroke-miterlimit="8" fill="#CBA9E5" fill-rule="evenodd"/><text font-family="FZFW ZhuZi A YuanS D,FZFW ZhuZi A YuanS D_MSFontService,sans-serif" font-weight="600" font-size="27" transform="translate(1082.11 306)">VP16</text><path d="M904.5 448.5 932 401.5 959.5 448.5Z" stroke="#E490A4" stroke-width="1.33333" stroke-miterlimit="8" fill="#E490A4" fill-rule="evenodd"/><text font-family="FZFW ZhuZi A YuanS D,FZFW ZhuZi A YuanS D_MSFontService,sans-serif" font-weight="600" font-size="27" transform="translate(1082.11 434)">Dox</text></g></svg>