<svg width="1248" height="576" xmlns="http://www.w3.org/2000/svg" xmlns:xlink="http://www.w3.org/1999/xlink" overflow="hidden"><defs><clipPath id="clip0"><rect x="0" y="0" width="1248" height="576"/></clipPath></defs><g clip-path="url(#clip0)"><rect x="0" y="0" width="1248" height="576" fill="#FFFFFF"/><rect x="79.5001" y="182.5" width="144" height="49" stroke="#8FAADC" stroke-width="1.33333" stroke-miterlimit="8" fill="#DAE3F3"/><text font-family="FZFW ZhuZi A YuanS D,FZFW ZhuZi A YuanS D_MSFontService,sans-serif" font-weight="600" font-size="27" transform="translate(125.302 215)">TRE</text><rect x="223.5" y="182.5" width="143" height="49" stroke="#8FAADC" stroke-width="1.33333" stroke-miterlimit="8" fill="#DAE3F3"/><text font-family="FZFW ZhuZi A YuanS D,FZFW ZhuZi A YuanS D_MSFontService,sans-serif" font-weight="600" font-size="27" transform="translate(232.703 215)">pCMVmin</text><rect x="366.5" y="182.5" width="157" height="49" stroke="#8FAADC" stroke-width="1.33333" stroke-miterlimit="8" fill="#DAE3F3"/><text font-family="FZFW ZhuZi A YuanS D,FZFW ZhuZi A YuanS D_MSFontService,sans-serif" font-weight="600" font-size="27" transform="translate(381.271 215)">Transgene</text><rect x="523.5" y="182.5" width="103" height="49" stroke="#8FAADC" stroke-width="1.33333" stroke-miterlimit="8" fill="#DAE3F3"/><text font-family="FZFW ZhuZi A YuanS D,FZFW ZhuZi A YuanS D_MSFontService,sans-serif" font-weight="600" font-size="27" transform="translate(557.437 215)">pA<tspan font-size="27" x="-50.9543" y="148">e</tspan><tspan font-size="27" x="-36.621" y="148">xpression</tspan></text><path d="M342.5 424.5 342.5 407.71C342.5 374.457 369.457 347.5 402.71 347.5L464.5 347.5 464.5 336.5 486.5 358.5 464.5 380.5 464.5 369.5 402.71 369.5C381.607 369.5 364.5 386.607 364.5 407.71L364.5 424.5Z" stroke="#FFD966" stroke-width="1.33333" stroke-miterlimit="8" fill="#FFE699" fill-rule="evenodd"/><path d="M133.5 354.76C148.555 354.76 160.76 342.555 160.76 327.5L202.24 327.5C202.24 342.555 214.445 354.76 229.5 354.76L229.5 396.24C214.445 396.24 202.24 408.445 202.24 423.5L160.76 423.5C160.76 408.445 148.555 396.24 133.5 396.24Z" stroke="#A9D18E" stroke-width="1.33333" stroke-miterlimit="8" fill="#8837FF" fill-rule="evenodd"/><rect x="81.5001" y="424.5" width="144" height="48" stroke="#8FAADC" stroke-width="1.33333" stroke-miterlimit="8" fill="#DAE3F3"/><text font-family="FZFW ZhuZi A YuanS D,FZFW ZhuZi A YuanS D_MSFontService,sans-serif" font-weight="600" font-size="27" transform="translate(127.425 456)">TRE</text><rect x="225.5" y="424.5" width="143" height="48" stroke="#8FAADC" stroke-width="1.33333" stroke-miterlimit="8" fill="#DAE3F3"/><text font-family="FZFW ZhuZi A YuanS D,FZFW ZhuZi A YuanS D_MSFontService,sans-serif" font-weight="600" font-size="27" transform="translate(234.826 456)">pCMVmin</text><rect x="368.5" y="424.5" width="157" height="48" stroke="#8FAADC" stroke-width="1.33333" stroke-miterlimit="8" fill="#DAE3F3"/><text font-family="FZFW ZhuZi A YuanS D,FZFW ZhuZi A YuanS D_MSFontService,sans-serif" font-weight="600" font-size="27" transform="translate(383.394 456)">Transgene</text><rect x="525.5" y="424.5" width="103" height="48" stroke="#8FAADC" stroke-width="1.33333" stroke-miterlimit="8" fill="#DAE3F3"/><text font-family="FZFW ZhuZi A YuanS D,FZFW ZhuZi A YuanS D_MSFontService,sans-serif" font-weight="600" font-size="27" transform="translate(559.56 456)">pA<tspan font-size="27" x="-103.483" y="-342">Stop expression</tspan></text><path d="M133.5 87.5001C133.5 60.9904 154.99 39.5001 181.5 39.5001 208.01 39.5001 229.5 60.9904 229.5 87.5001 229.5 114.01 208.01 135.5 181.5 135.5 154.99 135.5 133.5 114.01 133.5 87.5001Z" stroke="#A9D18E" stroke-width="1.33333" stroke-miterlimit="8" fill="#8837FF" fill-rule="evenodd"/><path d="M209.5 375.5 262.5 375.5 286.5 399.5 262.5 423.5 209.5 423.5Z" stroke="#CBA9E5" stroke-width="1.33333" stroke-miterlimit="8" fill="#CBA9E5" fill-rule="evenodd"/><path d="M104.5 374.5 132 327.5 159.5 374.5Z" stroke="#E490A4" stroke-width="1.33333" stroke-miterlimit="8" fill="#E490A4" fill-rule="evenodd"/><path d="M784.5 137.76C799.555 137.76 811.76 125.555 811.76 110.5L853.24 110.5C853.24 125.555 865.445 137.76 880.5 137.76L880.5 179.24C865.445 179.24 853.24 191.445 853.24 206.5L811.76 206.5C811.76 191.445 799.555 179.24 784.5 179.24Z" stroke="#A9D18E" stroke-width="1.33333" stroke-miterlimit="8" fill="#8837FF" fill-rule="evenodd"/><text font-family="FZFW ZhuZi A YuanS D,FZFW ZhuZi A YuanS D_MSFontService,sans-serif" font-weight="600" font-size="27" transform="translate(1068.69 174)">rTetR</text><path d="M921.5 166.5C921.5 139.99 942.99 118.5 969.5 118.5 996.01 118.5 1017.5 139.99 1017.5 166.5 1017.5 193.01 996.01 214.5 969.5 214.5 942.99 214.5 921.5 193.01 921.5 166.5Z" stroke="#A9D18E" stroke-width="1.33333" stroke-miterlimit="8" fill="#8837FF" fill-rule="evenodd"/><path d="M880.5 288.5 932.5 288.5 956.5 312.5 932.5 336.5 880.5 336.5Z" stroke="#CBA9E5" stroke-width="1.33333" stroke-miterlimit="8" fill="#CBA9E5" fill-rule="evenodd"/><path d="M209.5 97.5001 262.5 97.5001 286.5 121.5 262.5 145.5 209.5 145.5Z" stroke="#CBA9E5" stroke-width="1.33333" stroke-miterlimit="8" fill="#CBA9E5" fill-rule="evenodd"/><text font-family="FZFW ZhuZi A YuanS D,FZFW ZhuZi A YuanS D_MSFontService,sans-serif" font-weight="600" font-size="27" transform="translate(1068.69 317)">VP16</text><path d="M891.5 459.5 919 412.5 946.5 459.5Z" stroke="#E490A4" stroke-width="1.33333" stroke-miterlimit="8" fill="#E490A4" fill-rule="evenodd"/><text font-family="FZFW ZhuZi A YuanS D,FZFW ZhuZi A YuanS D_MSFontService,sans-serif" font-weight="600" font-size="27" transform="translate(1068.69 445)">Dox</text></g></svg>