<svg width="1248" height="288" xmlns="http://www.w3.org/2000/svg" xmlns:xlink="http://www.w3.org/1999/xlink" overflow="hidden"><defs><clipPath id="clip0"><rect x="0" y="0" width="1248" height="288"/></clipPath></defs><g clip-path="url(#clip0)"><rect x="0" y="0" width="1248" height="288" fill="#FFFFFF"/><path d="M128.5 120.5 128.5 103.71C128.5 70.4568 155.457 43.5001 188.71 43.5001L250.5 43.5001 250.5 32.5001 272.5 54.5001 250.5 76.5 250.5 65.5 188.71 65.5C167.607 65.5 150.5 82.6071 150.5 103.71L150.5 120.5Z" stroke="#FFD966" stroke-width="1.33333" stroke-miterlimit="8" fill="#FFE699" fill-rule="evenodd"/><rect x="76.5001" y="120.5" width="144" height="48" stroke="#8FAADC" stroke-width="1.33333" stroke-miterlimit="8" fill="#DAE3F3"/><text font-family="FZFW ZhuZi A YuanS D,FZFW ZhuZi A YuanS D_MSFontService,sans-serif" font-weight="600" font-size="24" transform="translate(97.0458 152)">promoter</text><rect x="221.5" y="120.5" width="271" height="48" stroke="#8FAADC" stroke-width="1.33333" stroke-miterlimit="8" fill="#DAE3F3"/><text font-family="FZFW ZhuZi A YuanS D,FZFW ZhuZi A YuanS D_MSFontService,sans-serif" font-weight="600" font-size="27" transform="translate(241.883 152)">Regulatory protein</text><rect x="492.5" y="120.5" width="104" height="48" stroke="#8FAADC" stroke-width="1.33333" stroke-miterlimit="8" fill="#DAE3F3"/><text font-family="FZFW ZhuZi A YuanS D,FZFW ZhuZi A YuanS D_MSFontService,sans-serif" font-weight="600" font-size="27" transform="translate(526.738 152)">pA</text><path d="M596.5 144.5 621.883 144.5" stroke="#4472C4" stroke-width="0.666667" stroke-miterlimit="8" fill="none" fill-rule="evenodd"/><rect x="621.5" y="120.5" width="143" height="48" stroke="#8FAADC" stroke-width="1.33333" stroke-miterlimit="8" fill="#DAE3F3"/><text font-family="FZFW ZhuZi A YuanS D,FZFW ZhuZi A YuanS D_MSFontService,sans-serif" font-weight="600" font-size="27" transform="translate(667.238 152)">TRE</text><rect x="764.5" y="120.5" width="144" height="48" stroke="#8FAADC" stroke-width="1.33333" stroke-miterlimit="8" fill="#DAE3F3"/><text font-family="FZFW ZhuZi A YuanS D,FZFW ZhuZi A YuanS D_MSFontService,sans-serif" font-weight="600" font-size="27" transform="translate(779.305 152)">promoter</text><rect x="908.5" y="120.5" width="157" height="48" stroke="#8FAADC" stroke-width="1.33333" stroke-miterlimit="8" fill="#DAE3F3"/><text font-family="FZFW ZhuZi A YuanS D,FZFW ZhuZi A YuanS D_MSFontService,sans-serif" font-weight="600" font-size="27" transform="translate(923.206 152)">Transgene</text><rect x="1065.5" y="120.5" width="103" height="48" stroke="#8FAADC" stroke-width="1.33333" stroke-miterlimit="8" fill="#DAE3F3"/><text font-family="FZFW ZhuZi A YuanS D,FZFW ZhuZi A YuanS D_MSFontService,sans-serif" font-weight="600" font-size="27" transform="translate(1099.37 152)">pA<tspan font-size="27" x="-778.479" y="81">调节基因</tspan><tspan font-size="27" x="-230.579" y="83">目标</tspan><tspan font-size="27" x="-177.246" y="83">基因</tspan></text></g></svg>