<svg width="1040" height="720" xmlns="http://www.w3.org/2000/svg" xmlns:xlink="http://www.w3.org/1999/xlink" overflow="hidden"><defs><clipPath id="clip0"><rect x="0" y="0" width="1040" height="720"/></clipPath></defs><g clip-path="url(#clip0)"><rect x="0" y="0" width="1040" height="720" fill="#FFFFFF"/><path d="M380.169 131.035 380.169 571.749" stroke="#000000" stroke-width="1.33333" stroke-linejoin="round" stroke-miterlimit="10" fill="none" fill-rule="evenodd"/><path d="M484.169 131.035 484.169 571.749" stroke="#000000" stroke-width="1.33333" stroke-linejoin="round" stroke-miterlimit="10" fill="none" fill-rule="evenodd"/><path d="M636.169 131.035 636.169 571.749" stroke="#000000" stroke-width="1.33333" stroke-linejoin="round" stroke-miterlimit="10" fill="none" fill-rule="evenodd"/><path d="M796.169 131.035 796.169 571.749" stroke="#000000" stroke-width="1.33333" stroke-linejoin="round" stroke-miterlimit="10" fill="none" fill-rule="evenodd"/><path d="M43.5024 186.1 948.836 186.1" stroke="#000000" stroke-width="1.33333" stroke-linejoin="round" stroke-miterlimit="10" fill="none" fill-rule="evenodd"/><path d="M43.5024 233.592 948.836 233.592" stroke="#000000" stroke-width="1.33333" stroke-linejoin="round" stroke-miterlimit="10" fill="none" fill-rule="evenodd"/><path d="M43.5024 286.631 948.836 286.631" stroke="#000000" stroke-width="1.33333" stroke-linejoin="round" stroke-miterlimit="10" fill="none" fill-rule="evenodd"/><path d="M43.5024 334.123 948.836 334.123" stroke="#000000" stroke-width="1.33333" stroke-linejoin="round" stroke-miterlimit="10" fill="none" fill-rule="evenodd"/><path d="M43.5024 381.448 948.836 381.448" stroke="#000000" stroke-width="1.33333" stroke-linejoin="round" stroke-miterlimit="10" fill="none" fill-rule="evenodd"/><path d="M43.5024 428.94 948.836 428.94" stroke="#000000" stroke-width="1.33333" stroke-linejoin="round" stroke-miterlimit="10" fill="none" fill-rule="evenodd"/><path d="M43.5024 476.265 948.836 476.265" stroke="#000000" stroke-width="1.33333" stroke-linejoin="round" stroke-miterlimit="10" fill="none" fill-rule="evenodd"/><path d="M43.5024 523.757 948.836 523.757" stroke="#000000" stroke-width="1.33333" stroke-linejoin="round" stroke-miterlimit="10" fill="none" fill-rule="evenodd"/><path d="M44.169 131.035 44.169 571.749" stroke="#000000" stroke-width="1.33333" stroke-linejoin="round" stroke-miterlimit="10" fill="none" fill-rule="evenodd"/><path d="M948.169 131.035 948.169 571.749" stroke="#000000" stroke-width="1.33333" stroke-linejoin="round" stroke-miterlimit="10" fill="none" fill-rule="evenodd"/><path d="M43.5024 131.702 948.836 131.702" stroke="#000000" stroke-width="1.33333" stroke-linejoin="round" stroke-miterlimit="10" fill="none" fill-rule="evenodd"/><path d="M43.5024 571.082 948.836 571.082" stroke="#000000" stroke-width="1.33333" stroke-linejoin="round" stroke-miterlimit="10" fill="none" fill-rule="evenodd"/><text font-family="FZFW ZhuZi A YuanS D,FZFW ZhuZi A YuanS D_MSFontService,sans-serif" font-weight="600" font-size="24" transform="translate(408.169 167)">质粒<tspan font-size="24" x="104" y="0">λ</tspan>噬菌体<tspan font-size="24" x="260" y="0">柯斯质粒</tspan><tspan font-size="24" x="404" y="0">单链噬菌体</tspan><tspan font-size="24" x="-290.167" y="50">克隆</tspan><tspan font-size="24" x="-235" y="50">DNA </tspan>大<tspan font-size="24" x="-149.833" y="50">片段</tspan><tspan font-size="24" x="8.58331" y="50">±</tspan><tspan font-size="16" x="32.5833" y="43">*</tspan><tspan font-size="27" x="144.5" y="51">+</tspan><tspan font-size="27" x="300.5" y="51">+</tspan><tspan font-size="27" x="457.583" y="51">-</tspan><tspan font-size="24" x="-280" y="101">构建基因组文库</tspan><tspan font-size="27" x="17.5833" y="101">-</tspan><tspan font-size="27" x="144.5" y="101">+</tspan><tspan font-size="27" x="300.5" y="101">+</tspan><tspan font-size="27" x="457.583" y="101">-</tspan><tspan font-size="24" x="-278.167" y="151">构建</tspan><tspan font-size="24" x="-223" y="151">DNA </tspan>文库<tspan font-size="27" x="16.4999" y="151">+</tspan><tspan font-size="27" x="145.583" y="151">-</tspan><tspan font-size="27" x="301.583" y="151">-</tspan><tspan font-size="27" x="457.583" y="151">-</tspan><tspan font-size="24" x="-280" y="198">常规的亚克隆化</tspan><tspan font-size="27" x="16.4999" y="199">+</tspan><tspan font-size="27" x="145.583" y="199">-</tspan><tspan font-size="27" x="301.583" y="199">-</tspan><tspan font-size="27" x="457.583" y="199">-</tspan><tspan font-size="24" x="-314.167" y="246">构建新型</tspan>的<tspan font-size="24" x="-187" y="246">DNA </tspan><tspan font-size="24" x="-125.833" y="246">结构</tspan><tspan font-size="27" x="16.4999" y="246">+</tspan><tspan font-size="27" x="145.583" y="246">-</tspan><tspan font-size="27" x="301.583" y="246">-</tspan><tspan font-size="27" x="457.583" y="246">-</tspan><tspan font-size="24" x="-244" y="293">序列分析</tspan><tspan font-size="27" x="16.4999" y="294">+</tspan><tspan font-size="27" x="145.583" y="294">-</tspan><tspan font-size="27" x="301.583" y="294">-</tspan><tspan font-size="27" x="456.5" y="294">+</tspan><tspan font-size="24" x="-244" y="341">单链探针</tspan><tspan font-size="27" x="8.83328" y="341">+</tspan><tspan font-size="18" x="23.8333" y="333">**</tspan><tspan font-size="27" x="145.583" y="341">-</tspan><tspan font-size="27" x="301.583" y="341">-</tspan><tspan font-size="27" x="456.5" y="341">+</tspan><tspan font-size="24" x="-352" y="388">外源基因在大肠杆菌中的表达</tspan><tspan font-size="24" x="17.25" y="388">+</tspan><tspan font-size="27" x="145.583" y="388">-</tspan><tspan font-size="27" x="301.583" y="388">-</tspan><tspan font-size="27" x="457.583" y="388">-</tspan><tspan font-family="STXinwei,STXinwei_MSFontService,sans-serif" font-weight="700" font-size="48" x="-128.169" y="-93">四种常用载体的比较</tspan><tspan font-size="27" x="-347.076" y="466">* </tspan><tspan font-size="27" x="-327.743" y="466">外源</tspan><tspan font-size="27" x="-266.409" y="466">DNA </tspan><tspan font-size="27" x="-198.409" y="466">如超过</tspan><tspan font-size="27" x="-110.409" y="466">10 kb</tspan><tspan font-size="27" x="-40.076" y="466">，则重组质粒的转化率</tspan><tspan font-size="27" x="226.591" y="466">和</tspan><tspan font-size="27" x="261.257" y="466">DNA </tspan><tspan font-size="27" x="329.257" y="466">得</tspan><tspan font-size="27" x="355.924" y="466">率都非常</tspan><tspan font-size="27" x="462.591" y="466">低</tspan><tspan font-size="27" x="-347.076" y="514">** </tspan><tspan font-size="27" x="-316.409" y="514">已有个别材料可用于此目的</tspan></text></g></svg>