<svg width="960" height="720" xmlns="http://www.w3.org/2000/svg" xmlns:xlink="http://www.w3.org/1999/xlink" overflow="hidden"><defs><clipPath id="clip0"><rect x="0" y="0" width="960" height="720"/></clipPath></defs><g clip-path="url(#clip0)"><rect x="0" y="0" width="960" height="720" fill="#FFFFFF"/><text font-family="FZFW ZhuZi A YuanS D,FZFW ZhuZi A YuanS D_MSFontService,sans-serif" font-weight="600" font-size="43" transform="translate(43.5662 66)">碱<tspan font-size="43" x="42.6667" y="0">裂解法流程图</tspan></text><path d="M140.5 123C140.5 116.649 145.649 111.5 152 111.5L299 111.5C305.351 111.5 310.5 116.649 310.5 123L310.5 169C310.5 175.351 305.351 180.5 299 180.5L152 180.5C145.649 180.5 140.5 175.351 140.5 169Z" stroke="#000000" stroke-miterlimit="8" fill="#99FF99" fill-rule="evenodd"/><text font-family="FZFW ZhuZi A YuanS D,FZFW ZhuZi A YuanS D_MSFontService,sans-serif" font-weight="600" font-size="27" transform="translate(158.561 153)">对数期菌体</text><path d="M117.5 506 221.5 464.5 325.5 506 221.5 547.5Z" stroke="#FFFFFF" stroke-miterlimit="8" fill="#FF99CC" fill-rule="evenodd"/><text font-family="FZFW ZhuZi A YuanS D,FZFW ZhuZi A YuanS D_MSFontService,sans-serif" font-weight="600" font-size="24" transform="translate(162.426 513)">溶液III中和</text><path d="M117.5 263.5 218 221.5 318.5 263.5 218 305.5Z" stroke="#FFFFFF" stroke-miterlimit="8" fill="#FF99CC" fill-rule="evenodd"/><text font-family="FZFW ZhuZi A YuanS D,FZFW ZhuZi A YuanS D_MSFontService,sans-serif" font-weight="600" font-size="24" transform="translate(165.841 271)">溶液I溶菌</text><path d="M117.5 381 221.5 339.5 325.5 381 221.5 422.5Z" stroke="#FFFFFF" stroke-miterlimit="8" fill="#FF99CC" fill-rule="evenodd"/><text font-family="FZFW ZhuZi A YuanS D,FZFW ZhuZi A YuanS D_MSFontService,sans-serif" font-weight="600" font-size="24" transform="translate(165.926 388)">溶液II裂解</text><path d="M415.5 123C415.5 116.649 420.649 111.5 427 111.5L567 111.5C573.351 111.5 578.5 116.649 578.5 123L578.5 169C578.5 175.351 573.351 180.5 567 180.5L427 180.5C420.649 180.5 415.5 175.351 415.5 169Z" stroke="#000000" stroke-miterlimit="8" fill="#99FF99" fill-rule="evenodd"/><text font-family="FZFW ZhuZi A YuanS D,FZFW ZhuZi A YuanS D_MSFontService,sans-serif" font-weight="600" font-size="27" transform="translate(456.559 153)">上清液</text><path d="M400.5 267 504 228.5 607.5 267 504 305.5Z" stroke="#FFFFFF" stroke-miterlimit="8" fill="#FF99CC" fill-rule="evenodd"/><text font-family="FZFW ZhuZi A YuanS D,FZFW ZhuZi A YuanS D_MSFontService,sans-serif" font-weight="600" font-size="24" transform="translate(479.33 274)">抽提</text><path d="M400.5 509.5 504 471.5 607.5 509.5 504 547.5Z" stroke="#FFFFFF" stroke-miterlimit="8" fill="#FF99CC" fill-rule="evenodd"/><text font-family="FZFW ZhuZi A YuanS D,FZFW ZhuZi A YuanS D_MSFontService,sans-serif" font-weight="600" font-size="24" transform="translate(455.33 517)">离心洗涤</text><path d="M400.5 391.5 500 353.5 599.5 391.5 500 429.5Z" stroke="#FFFFFF" stroke-miterlimit="8" fill="#FF99CC" fill-rule="evenodd"/><text font-family="FZFW ZhuZi A YuanS D,FZFW ZhuZi A YuanS D_MSFontService,sans-serif" font-weight="600" font-size="24" transform="translate(451.745 399)">酒精沉淀</text><path d="M675.5 267 778.5 228.5 881.5 267 778.5 305.5Z" stroke="#FFFFFF" stroke-miterlimit="8" fill="#FF99CC" fill-rule="evenodd"/><text font-family="FZFW ZhuZi A YuanS D,FZFW ZhuZi A YuanS D_MSFontService,sans-serif" font-weight="600" font-size="24" transform="translate(730.326 274)">干燥溶解</text><path d="M683.5 123C683.5 116.649 688.649 111.5 695 111.5L834 111.5C840.351 111.5 845.5 116.649 845.5 123L845.5 169C845.5 175.351 840.351 180.5 834 180.5L695 180.5C688.649 180.5 683.5 175.351 683.5 169Z" stroke="#000000" stroke-miterlimit="8" fill="#99FF99" fill-rule="evenodd"/><text font-family="FZFW ZhuZi A YuanS D,FZFW ZhuZi A YuanS D_MSFontService,sans-serif" font-weight="600" font-size="27" transform="translate(737.4 153)">沉淀</text><path d="M683.5 379C683.5 372.649 688.649 367.5 695 367.5L849 367.5C855.351 367.5 860.5 372.649 860.5 379L860.5 425C860.5 431.351 855.351 436.5 849 436.5L695 436.5C688.649 436.5 683.5 431.351 683.5 425Z" stroke="#000000" stroke-miterlimit="8" fill="#99FF99" fill-rule="evenodd"/><text font-family="FZFW ZhuZi A YuanS D,FZFW ZhuZi A YuanS D_MSFontService,sans-serif" font-weight="600" font-size="27" transform="translate(687.982 410)">质粒<tspan font-size="27" x="53.3333" y="0">DNA</tspan>溶液</text><path d="M211.833 305.5 211.833 327.833 207.167 327.833 207.167 305.5ZM216.5 325.5 209.5 339.5 202.5 325.5Z"/><path d="M211.833 187.5 211.833 209.833 207.167 209.833 207.167 187.5ZM216.5 207.5 209.5 221.5 202.5 207.5Z"/><path d="M494.833 436.5 494.833 459.833 490.167 459.833 490.167 436.5ZM499.5 457.5 492.5 471.5 485.5 457.5Z"/><path d="M494.833 312.5 494.833 334.833 490.167 334.833 490.167 312.5ZM499.5 332.5 492.5 346.5 485.5 332.5Z"/><path d="M494.833 187.5 494.833 209.833 490.167 209.833 490.167 187.5ZM499.5 207.5 492.5 221.5 485.5 207.5Z"/><path d="M769.833 318.5 769.833 341.833 765.167 341.833 765.167 318.5ZM774.5 339.5 767.5 353.5 760.5 339.5Z"/><path d="M769.833 187.5 769.833 209.833 765.167 209.833 765.167 187.5ZM774.5 207.5 767.5 221.5 760.5 207.5Z"/><path d="M211.833 429.5 211.833 452.833 207.167 452.833 207.167 429.5ZM216.5 450.5 209.5 464.5 202.5 450.5Z"/><path d="M324.5 506.5 362.5 506.5" stroke="#000000" stroke-width="4.66667" stroke-linejoin="round" stroke-miterlimit="10" fill="none" fill-rule="evenodd"/><path d="M0 0 0.000104987 361" stroke="#000000" stroke-width="4.66667" stroke-linejoin="round" stroke-miterlimit="10" fill="none" fill-rule="evenodd" transform="matrix(1 0 0 -1 362.5 506.5)"/><path d="M362.5 143.167 388.833 143.167 388.833 147.833 362.5 147.833ZM386.5 138.5 400.5 145.5 386.5 152.5Z"/><path d="M599.5 506.5 637.5 506.5" stroke="#000000" stroke-width="4.66667" stroke-linejoin="round" stroke-miterlimit="10" fill="none" fill-rule="evenodd"/><path d="M0 0 0.000104987 361" stroke="#000000" stroke-width="4.66667" stroke-linejoin="round" stroke-miterlimit="10" fill="none" fill-rule="evenodd" transform="matrix(1 0 0 -1 637.5 506.5)"/><path d="M637.5 143.167 663.833 143.167 663.833 147.833 637.5 147.833ZM661.5 138.5 675.5 145.5 661.5 152.5Z"/><text font-family="FZFW ZhuZi A YuanS D,FZFW ZhuZi A YuanS D_MSFontService,sans-serif" font-weight="600" font-size="24" transform="translate(78.1048 597)">溶液I<tspan font-size="24" x="55" y="0">，</tspan>50 mM葡萄糖；25 mM Tris-Cl （<tspan font-size="24" x="445.667" y="0">pH 8.0</tspan><tspan font-size="24" x="520.833" y="0">）；</tspan>10 mM EDTA，溶菌酶；<tspan font-size="24" x="0" y="43">溶液</tspan>II<tspan font-size="24" x="62" y="43">，</tspan>0.2 N NaOH ；<tspan font-size="24" x="263.167" y="43">1% SDS</tspan><tspan font-size="24" x="348.333" y="43">；</tspan><tspan font-size="24" x="0" y="86">溶液</tspan>III<tspan font-size="24" x="69" y="86">，</tspan>3 M <tspan font-size="24" x="143.667" y="86">醋酸钾；</tspan><tspan font-size="24" x="246.833" y="86">2 M </tspan><tspan font-size="24" x="297.5" y="86">醋酸</tspan></text></g></svg>