<svg width="1040" height="720" xmlns="http://www.w3.org/2000/svg" xmlns:xlink="http://www.w3.org/1999/xlink" overflow="hidden"><defs><clipPath id="clip0"><rect x="0" y="0" width="1040" height="720"/></clipPath></defs><g clip-path="url(#clip0)"><rect x="0" y="0" width="1040" height="720" fill="#FFFFFF"/><path d="M287.241 99.1643 287.241 687.497" stroke="#000000" stroke-width="1.33333" stroke-linejoin="round" stroke-miterlimit="10" fill="none" fill-rule="evenodd"/><path d="M430.414 99.1643 430.414 687.497" stroke="#000000" stroke-width="1.33333" stroke-linejoin="round" stroke-miterlimit="10" fill="none" fill-rule="evenodd"/><path d="M589.035 99.1643 589.035 687.497" stroke="#000000" stroke-width="1.33333" stroke-linejoin="round" stroke-miterlimit="10" fill="none" fill-rule="evenodd"/><path d="M795.979 99.1643 795.979 687.497" stroke="#000000" stroke-width="1.33333" stroke-linejoin="round" stroke-miterlimit="10" fill="none" fill-rule="evenodd"/><path d="M286.574 138.666 1020.84 138.666" stroke="#000000" stroke-width="1.33333" stroke-linejoin="round" stroke-miterlimit="10" fill="none" fill-rule="evenodd"/><path d="M36.5164 193.069 1020.84 193.069" stroke="#000000" stroke-width="1.33333" stroke-linejoin="round" stroke-miterlimit="10" fill="none" fill-rule="evenodd"/><path d="M36.5164 251.951 1020.84 251.951" stroke="#000000" stroke-width="1.33333" stroke-linejoin="round" stroke-miterlimit="10" fill="none" fill-rule="evenodd"/><path d="M36.5164 290.786 1020.84 290.786" stroke="#000000" stroke-width="1.33333" stroke-linejoin="round" stroke-miterlimit="10" fill="none" fill-rule="evenodd"/><path d="M36.5164 345.189 1020.84 345.189" stroke="#000000" stroke-width="1.33333" stroke-linejoin="round" stroke-miterlimit="10" fill="none" fill-rule="evenodd"/><path d="M36.5164 404.071 1020.84 404.071" stroke="#000000" stroke-width="1.33333" stroke-linejoin="round" stroke-miterlimit="10" fill="none" fill-rule="evenodd"/><path d="M36.5164 464.741 1020.84 464.741" stroke="#000000" stroke-width="1.33333" stroke-linejoin="round" stroke-miterlimit="10" fill="none" fill-rule="evenodd"/><path d="M36.5164 523.623 1020.84 523.623" stroke="#000000" stroke-width="1.33333" stroke-linejoin="round" stroke-miterlimit="10" fill="none" fill-rule="evenodd"/><path d="M36.5164 578.026 1020.84 578.026" stroke="#000000" stroke-width="1.33333" stroke-linejoin="round" stroke-miterlimit="10" fill="none" fill-rule="evenodd"/><path d="M36.5164 632.428 1020.84 632.428" stroke="#000000" stroke-width="1.33333" stroke-linejoin="round" stroke-miterlimit="10" fill="none" fill-rule="evenodd"/><path d="M37.1831 99.1643 37.1831 687.497" stroke="#000000" stroke-width="1.33333" stroke-linejoin="round" stroke-miterlimit="10" fill="none" fill-rule="evenodd"/><path d="M1020.17 99.1643 1020.17 687.497" stroke="#000000" stroke-width="1.33333" stroke-linejoin="round" stroke-miterlimit="10" fill="none" fill-rule="evenodd"/><path d="M36.5164 99.831 1020.84 99.831" stroke="#000000" stroke-width="1.33333" stroke-linejoin="round" stroke-miterlimit="10" fill="none" fill-rule="evenodd"/><path d="M36.5164 686.831 1020.84 686.831" stroke="#000000" stroke-width="1.33333" stroke-linejoin="round" stroke-miterlimit="10" fill="none" fill-rule="evenodd"/><text font-family="FZFW ZhuZi A YuanS D,FZFW ZhuZi A YuanS D_MSFontService,sans-serif" font-weight="600" font-size="19" transform="translate(139.545 152)">质粒<tspan font-size="19" x="37.3333" y="0">*</tspan><tspan font-size="19" x="181.949" y="-27">受体细胞</tspan><tspan font-size="19" x="351.512" y="-27">结构</tspan><tspan font-size="19" x="515.628" y="-27">插入片断</tspan><tspan font-size="19" x="749.862" y="-27">举例</tspan><tspan font-style="oblique" font-size="19" x="195.865" y="20">E.coli</tspan><tspan font-size="19" x="351.512" y="20">环状</tspan><tspan font-size="19" x="525.962" y="20">&lt; 8 kb</tspan><tspan font-size="19" x="685.029" y="8">p</tspan>UC18/19 , T-载体<tspan font-size="19" x="714.782" y="30">pGEM</tspan>-<tspan font-size="19" x="783.949" y="30">3z</tspan><tspan font-size="19" x="803.615" y="30">等</tspan><tspan font-size="19" x="-14.6667" y="76">λ</tspan><tspan font-size="19" x="4" y="76">噬菌体</tspan><tspan font-style="oblique" font-size="19" x="195.865" y="76">E.coli</tspan><tspan font-size="19" x="351.512" y="76">线状</tspan><tspan font-size="19" x="507.962" y="76">9 </tspan>～<tspan font-size="19" x="548.962" y="76">23 kb</tspan><tspan font-size="19" x="714.862" y="63">EMBL</tspan>系列，<tspan font-size="19" x="729.115" y="90">Λ </tspan><tspan font-size="19" x="753.449" y="90">gt</tspan><tspan font-size="19" x="770.615" y="90">系列</tspan><tspan font-size="19" x="-61.3333" y="125">丝状噬菌体及噬菌粒</tspan><tspan font-style="oblique" font-size="19" x="195.865" y="125">E.coli</tspan><tspan font-size="19" x="351.512" y="125">环状</tspan><tspan font-size="19" x="520.462" y="125">&lt; 10 </tspan>kb<tspan font-size="19" x="716.779" y="125">M13mp</tspan>系列<tspan font-size="19" x="-14.6667" y="172">粘粒载体</tspan><tspan font-style="oblique" font-size="19" x="195.865" y="172">E.coli</tspan><tspan font-size="19" x="351.512" y="172">环状</tspan><tspan font-size="19" x="502.462" y="172">30 </tspan>～<tspan font-size="19" x="554.462" y="172">45 kb</tspan><tspan font-size="19" x="665.195" y="161">pJB8,c2RB, pcoslEMBL, </tspan><tspan font-size="19" x="697.029" y="183">pWE15/16, pCV </tspan><tspan font-size="19" x="-80.9167" y="217">BAC (Bacterial Artificial </tspan><tspan font-size="19" x="-37.9167" y="239">Chro</tspan><tspan font-size="19" x="5.24998" y="239">mo</tspan><tspan font-size="19" x="31.5833" y="239">some)</tspan><tspan font-style="oblique" font-size="19" x="195.865" y="228">E.coli</tspan><tspan font-size="19" x="351.512" y="228">环状</tspan><tspan font-size="19" x="510.795" y="228">≈ 300 kb</tspan><tspan font-size="19" x="708.695" y="228">Pel oBAC</tspan>系列<tspan font-size="19" x="-90.4167" y="277">PAC (P1</tspan><tspan font-size="19" x="-16.75" y="277">-</tspan><tspan font-size="19" x="-7.75002" y="277">derived Artificial </tspan><tspan font-size="19" x="-35.5834" y="299">chromosome)</tspan><tspan font-style="oblique" font-size="19" x="195.865" y="288">E.coli</tspan><tspan font-size="19" x="351.512" y="288">环状</tspan><tspan font-size="19" x="485.962" y="288">100 </tspan>～<tspan font-size="19" x="548.962" y="288">2000 </tspan>kb<tspan font-size="19" x="724.862" y="288">PCYPAC1</tspan><tspan font-size="19" x="-66.5834" y="337">YAC (Yeast Artificial </tspan><tspan font-size="19" x="-38.4167" y="359">chromosome )</tspan><tspan font-size="19" x="181.949" y="348">酵母细胞</tspan><tspan font-size="19" x="323.512" y="335">线性染色体</tspan><tspan font-size="19" x="491.462" y="348">250 </tspan>～<tspan font-size="19" x="554.462" y="348">400 </tspan>kb<tspan font-size="19" x="-55" y="393">MAC (Mammalian </tspan><tspan font-size="19" x="-77.5" y="415">Artificial Chromosome)</tspan><tspan font-size="19" x="172.615" y="405">哺乳类细胞</tspan><tspan font-size="19" x="323.512" y="405">线性染色体</tspan><tspan font-size="19" x="509.462" y="405">&gt; 1000 </tspan>kb<tspan font-size="19" x="-14.6667" y="459">病毒载体</tspan><tspan font-size="19" x="181.949" y="459">动物细胞</tspan><tspan font-size="19" x="351.512" y="459">环状</tspan><tspan font-size="19" x="696.612" y="448">SV40 </tspan>载体，昆虫<tspan font-size="19" x="712.525" y="470">杆状病毒载体</tspan><tspan font-size="19" x="-14.6667" y="513">穿梭载体</tspan><tspan font-size="19" x="181.949" y="502">动物细胞</tspan><tspan font-size="19" x="191.282" y="524">和细菌</tspan><tspan font-size="19" x="351.512" y="513">环状</tspan><tspan font-size="19" x="690.862" y="502">pSVK3</tspan><tspan font-size="19" x="749.029" y="502">质粒，</tspan>PBV,<tspan font-size="19" x="741.282" y="524">Ti</tspan>质粒<tspan font-family="STXinwei,STXinwei_MSFontService,sans-serif" font-weight="700" font-size="43" x="182.055" y="-83">载体的种类和特征</tspan></text></g></svg>