<svg width="1280" height="720" xmlns="http://www.w3.org/2000/svg" xmlns:xlink="http://www.w3.org/1999/xlink" overflow="hidden"><defs><clipPath id="clip0"><rect x="0" y="0" width="1280" height="720"/></clipPath></defs><g clip-path="url(#clip0)"><rect x="0" y="0" width="1280" height="720" fill="#FFFFFF"/><rect x="223.5" y="120.5" width="275" height="49" stroke="#C55A11" stroke-width="1.33333" stroke-miterlimit="8" fill="#F8CBAD"/><text font-family="FZFW ZhuZi A YuanS D,FZFW ZhuZi A YuanS D_MSFontService,sans-serif" font-weight="600" font-size="21" transform="translate(317.287 150)">GALUAS</text><rect x="498.5" y="120.5" width="184" height="49" stroke="#2F5597" stroke-width="1.33333" stroke-miterlimit="8" fill="#8FAADC"/><text font-family="FZFW ZhuZi A YuanS D,FZFW ZhuZi A YuanS D_MSFontService,sans-serif" font-weight="600" font-size="21" transform="translate(557.771 150)">启动子</text><rect x="682.5" y="120.5" width="366" height="49" stroke="#548235" stroke-width="1.33333" stroke-miterlimit="8" fill="#A9D18E"/><text font-family="FZFW ZhuZi A YuanS D,FZFW ZhuZi A YuanS D_MSFontService,sans-serif" font-style="oblique" font-weight="600" font-size="21" transform="translate(742.209 150)">LacZ<tspan font-style="normal" font-size="21" x="48.5" y="0">（</tspan><tspan font-style="normal" font-size="21" x="69.8334" y="0">或</tspan><tspan font-size="21" x="91.1667" y="0">HIS3</tspan><tspan font-style="normal" font-size="21" x="138.667" y="0">）</tspan><tspan font-style="normal" font-size="21" x="160" y="0">报告基因</tspan></text><path d="M223.798 144.616 132.5 144.5" stroke="#4472C4" stroke-width="1.33333" stroke-miterlimit="8" fill="none" fill-rule="evenodd"/><path d="M0 0 112.686 0.116115" stroke="#4472C4" stroke-width="1.33333" stroke-miterlimit="8" fill="none" fill-rule="evenodd" transform="matrix(1 0 0 -1 1048.5 144.616)"/><path d="M0 0 87.7289 0 87.7289 29.5703 175 29.5703 175 60 0 60Z" stroke="#BF9000" stroke-width="1.33333" stroke-miterlimit="8" fill="#FFE699" fill-rule="evenodd" transform="matrix(-1 1.22465e-16 1.22465e-16 1 887.5 248.5)"/><text font-family="FZFW ZhuZi A YuanS D,FZFW ZhuZi A YuanS D_MSFontService,sans-serif" font-weight="600" font-size="21" transform="translate(792.621 299)">Y</text><path d="M0 0 86.2667 0 86.2667 29.0775 175 29.0775 175 59 0 59Z" stroke="#BF9000" stroke-width="1.33333" stroke-miterlimit="8" fill="#FFC000" fill-rule="evenodd" transform="matrix(1 -1.22465e-16 -1.22465e-16 -1 286.5 590.5)"/><text font-family="FZFW ZhuZi A YuanS D,FZFW ZhuZi A YuanS D_MSFontService,sans-serif" font-weight="600" font-size="21" transform="matrix(-1 1.22465e-16 -1.22465e-16 -1 381.378 540)">X</text><path d="M286.5 598C286.5 577.289 306.2 560.5 330.5 560.5 354.801 560.5 374.5 577.289 374.5 598 374.5 618.711 354.801 635.5 330.5 635.5 306.2 635.5 286.5 618.711 286.5 598Z" stroke="#8FAADC" stroke-width="1.33333" stroke-miterlimit="8" fill="#B4C7E7" fill-rule="evenodd"/><path d="M800.5 241.5C800.5 221.066 820.2 204.5 844.5 204.5 868.801 204.5 888.5 221.066 888.5 241.5 888.5 261.935 868.801 278.5 844.5 278.5 820.2 278.5 800.5 261.935 800.5 241.5Z" stroke="#8FAADC" stroke-width="1.33333" stroke-miterlimit="8" fill="#B4C7E7" fill-rule="evenodd"/><text font-family="FZFW ZhuZi A YuanS D,FZFW ZhuZi A YuanS D_MSFontService,sans-serif" font-weight="600" font-size="21" transform="translate(828.166 247)">AD<tspan font-size="21" x="-544.164" y="358">DNA</tspan>-BD<tspan font-size="24" x="-709.215" y="-175">A</tspan></text><rect x="223.5" y="337.5" width="275" height="49" stroke="#C55A11" stroke-width="1.33333" stroke-miterlimit="8" fill="#F8CBAD"/><text font-family="FZFW ZhuZi A YuanS D,FZFW ZhuZi A YuanS D_MSFontService,sans-serif" font-weight="600" font-size="21" transform="translate(317.287 367)">GALUAS</text><rect x="498.5" y="337.5" width="184" height="49" stroke="#2F5597" stroke-width="1.33333" stroke-miterlimit="8" fill="#8FAADC"/><text font-family="FZFW ZhuZi A YuanS D,FZFW ZhuZi A YuanS D_MSFontService,sans-serif" font-weight="600" font-size="21" transform="translate(557.771 367)">启动子</text><rect x="682.5" y="337.5" width="366" height="49" stroke="#548235" stroke-width="1.33333" stroke-miterlimit="8" fill="#A9D18E"/><text font-family="FZFW ZhuZi A YuanS D,FZFW ZhuZi A YuanS D_MSFontService,sans-serif" font-style="oblique" font-weight="600" font-size="21" transform="translate(742.209 367)">LacZ<tspan font-style="normal" font-size="21" x="48.5" y="0">（</tspan><tspan font-style="normal" font-size="21" x="69.8334" y="0">或</tspan><tspan font-size="21" x="91.1667" y="0">HIS3</tspan><tspan font-style="normal" font-size="21" x="138.667" y="0">）</tspan><tspan font-style="normal" font-size="21" x="160" y="0">报告基因</tspan></text><path d="M223.798 361.616 132.5 361.5" stroke="#4472C4" stroke-width="1.33333" stroke-miterlimit="8" fill="none" fill-rule="evenodd"/><path d="M0 0 112.686 0.116115" stroke="#4472C4" stroke-width="1.33333" stroke-miterlimit="8" fill="none" fill-rule="evenodd" transform="matrix(1 0 0 -1 1048.5 361.616)"/><text font-family="FZFW ZhuZi A YuanS D,FZFW ZhuZi A YuanS D_MSFontService,sans-serif" font-weight="600" font-size="24" transform="translate(118.951 289)">B</text><path d="M0 0 86.2668 0 86.2668 29.0777 174 29.0777 174 59 0 59Z" stroke="#BF9000" stroke-width="1.33333" stroke-miterlimit="8" fill="#FFE699" fill-rule="evenodd" transform="matrix(-1 1.22465e-16 1.22465e-16 1 548.5 531.5)"/><text font-family="FZFW ZhuZi A YuanS D,FZFW ZhuZi A YuanS D_MSFontService,sans-serif" font-weight="600" font-size="21" transform="translate(453.866 581)">Y</text><path d="M461.5 524.5C461.5 504.066 481.2 487.5 505.5 487.5 529.801 487.5 549.5 504.066 549.5 524.5 549.5 544.935 529.801 561.5 505.5 561.5 481.2 561.5 461.5 544.935 461.5 524.5Z" stroke="#8FAADC" stroke-width="1.33333" stroke-miterlimit="8" fill="#B4C7E7" fill-rule="evenodd"/><text font-family="FZFW ZhuZi A YuanS D,FZFW ZhuZi A YuanS D_MSFontService,sans-serif" font-weight="600" font-size="21" transform="translate(489.411 530)">AD</text><rect x="223.5" y="635.5" width="275" height="49" stroke="#C55A11" stroke-width="1.33333" stroke-miterlimit="8" fill="#F8CBAD"/><text font-family="FZFW ZhuZi A YuanS D,FZFW ZhuZi A YuanS D_MSFontService,sans-serif" font-weight="600" font-size="21" transform="translate(317.287 666)">GALUAS</text><rect x="498.5" y="635.5" width="184" height="49" stroke="#2F5597" stroke-width="1.33333" stroke-miterlimit="8" fill="#8FAADC"/><text font-family="FZFW ZhuZi A YuanS D,FZFW ZhuZi A YuanS D_MSFontService,sans-serif" font-weight="600" font-size="21" transform="translate(557.771 666)">启动子</text><rect x="682.5" y="635.5" width="366" height="49" stroke="#548235" stroke-width="1.33333" stroke-miterlimit="8" fill="#A9D18E"/><text font-family="FZFW ZhuZi A YuanS D,FZFW ZhuZi A YuanS D_MSFontService,sans-serif" font-style="oblique" font-weight="600" font-size="21" transform="translate(742.209 666)">LacZ<tspan font-style="normal" font-size="21" x="48.5" y="0">（</tspan><tspan font-style="normal" font-size="21" x="69.8334" y="0">或</tspan><tspan font-size="21" x="91.1667" y="0">HIS3</tspan><tspan font-style="normal" font-size="21" x="138.667" y="0">）</tspan><tspan font-style="normal" font-size="21" x="160" y="0">报告基因</tspan></text><path d="M223.798 659.616 132.5 659.5" stroke="#4472C4" stroke-width="1.33333" stroke-miterlimit="8" fill="none" fill-rule="evenodd"/><path d="M0 0 112.686 0.116115" stroke="#4472C4" stroke-width="1.33333" stroke-miterlimit="8" fill="none" fill-rule="evenodd" transform="matrix(1 0 0 -1 1048.5 659.616)"/><text font-family="FZFW ZhuZi A YuanS D,FZFW ZhuZi A YuanS D_MSFontService,sans-serif" font-weight="600" font-size="24" transform="translate(118.951 587)">C</text><path d="M673.5 610.5 673.5 584.25C673.5 569.753 685.253 558 699.75 558L805.819 558 805.819 550.5 835.5 565.5 805.819 580.5 805.819 573 699.75 573C693.537 573 688.5 578.037 688.5 584.25L688.5 610.5Z" stroke="#6288CC" stroke-width="1.33333" stroke-miterlimit="8" fill="#7DDDFF" fill-rule="evenodd"/><text font-family="FZFW ZhuZi A YuanS D,FZFW ZhuZi A YuanS D_MSFontService,sans-serif" font-weight="600" font-size="24" transform="translate(721.983 544)">转录</text><path d="M0 0 86.2667 0 86.2667 29.0775 175 29.0775 175 59 0 59Z" stroke="#BF9000" stroke-width="1.33333" stroke-miterlimit="8" fill="#FFC000" fill-rule="evenodd" transform="matrix(1 -1.22465e-16 -1.22465e-16 -1 274.5 75.5001)"/><text font-family="FZFW ZhuZi A YuanS D,FZFW ZhuZi A YuanS D_MSFontService,sans-serif" font-weight="600" font-size="21" transform="matrix(-1 1.22465e-16 -1.22465e-16 -1 369.557 25)">X</text><path d="M274.5 83.0001C274.5 62.2894 294.2 45.5001 318.5 45.5001 342.801 45.5001 362.5 62.2894 362.5 83.0001 362.5 103.711 342.801 120.5 318.5 120.5 294.2 120.5 274.5 103.711 274.5 83.0001Z" stroke="#8FAADC" stroke-width="1.33333" stroke-miterlimit="8" fill="#B4C7E7" fill-rule="evenodd"/><text font-family="FZFW ZhuZi A YuanS D,FZFW ZhuZi A YuanS D_MSFontService,sans-serif" font-weight="600" font-size="21" transform="translate(272.181 90)">DNA<tspan font-size="21" x="47.8333" y="0">-</tspan><tspan font-size="21" x="58" y="0">BD</tspan></text></g></svg>